<?xml version="1.0" encoding="utf-8"?>
<!-- Generator: Adobe Illustrator 17.0.0, SVG Export Plug-In . SVG Version: 6.00 Build 0)  -->
<!DOCTYPE svg PUBLIC "-//W3C//DTD SVG 1.1//EN" "http://www.w3.org/Graphics/SVG/1.1/DTD/svg11.dtd">
<svg version="1.1" id="Layer_1" xmlns="http://www.w3.org/2000/svg" xmlns:xlink="http://www.w3.org/1999/xlink" x="0px" y="0px"
	 width="1155.115px" height="918.092px" viewBox="0 0 1155.115 918.092" enable-background="new 0 0 1155.115 918.092"
	 xml:space="preserve">
<path fill="#FFFFFF" d="M449.097,583.929 M778.169,458.769c5.391-0.119,10.074-9.685,12.5-14.5
	c4.671-9.269,7.934-22.432,10.819-31.647c2.52-8.052,2.52-8.052,5.559-24.787c-0.718-15.489-2.142-25.751-1.644-29.802
	c0.813-6.614-4.864-23.297,0.9-26.64c3.773-2.189,8.958-1.997,13.148-3.205c6.242-1.8,12.201-1.936,16.751,2.194
	c3.283,2.98,4.669,8.027,6.985,12.105c0.913,1.608,1.926,4.966,3.16,4.351c10.488-5.234,11.155-15.234,26.796-21.259
	c7.565-2.914,16.178-2.286,24.216-1.98c7.82,0.298,15.505,2.786,22.7,6.108c5.528,2.553,7.672,7.997,8.682,13.299
	c2.186,11.48,3.527,23.12,5.264,34.686c0.736,4.898,2.063,9.753,2.312,14.669c0.59,11.629,2.637,23.172,1.139,34.945
	c-0.851,6.69,0.342,27.212,3.497,27.075c8.871-0.387,13.296-23.11,17.067-31.149c2.319-4.945,3.735-10.132,4.934-15.439
	c1.591-7.045,3.186-14.109,5.251-21.023c1.969-6.593,4.627-12.977,6.823-19.506c1.512-4.496,2.764-9.079,4.11-13.63
	c0.868-2.937,1.951-5.841,2.486-8.841c1.032-5.782,2.934-11.261,5.544-16.522c0.831-1.675,3.696-4.447,5.431-5.144
	c9.105-3.661,7.631-2.258,17.429-1.882c5.147,0.198,9.912,1.683,14.619,4.756c8.978,5.861,10.724,14.592,10.968,23.749
	c0.176,6.615-0.941,19.831-1.279,26.44c-0.756,14.78,0.484,29.511,1.456,44.242c0.128,1.944,0.678,3.92,1.37,5.754
	c1.397,3.702,5.579,3.634,8.561,0.97c9.944-8.886,12.317-25.05,16.046-33.573c2.767-6.325,3.74-13.028,5.771-19.679
	c2.185-7.154,5.566-13.939,8.34-20.919c1.621-4.077,3.022-8.241,4.617-12.33c2.946-7.556,5.499-15.28,8.87-22.653
	c1.635-3.576,3.823-12.898,7.665-13.733c6.353-1.382,19.478,1.069,25.958,1.604c6.786,0.56,10.44,5.248,13.447,10.384
	c1.013,1.731,0.84,4.553,0.369,6.691c-3.485,15.818-4.55,31.9-5.628,47.992c-1.018,15.195-1.429,30.477-3.428,45.545
	c-1.502,11.318-0.67,22.632-1.867,33.908c-0.958,9.024-1.275,18.138-1.428,27.219c-0.177,10.517,0.123,21.043,0.24,31.565
	c0.108,9.716,0.086,19.438,0.416,29.148c0.444,13.047,1.362,26.08,1.722,39.129c0.309,11.194-0.119,22.408,0.229,33.6
	c0.257,8.268,1.45,16.505,1.838,24.773c0.393,8.376,0.299,16.774,0.443,25.162c0.02,1.153,0.19,2.302,0.278,3.454
	c0.549,7.251,1.125,14.5,1.631,21.754c0.455,6.525,0.965,13.05,1.196,19.584c0.154,4.356-0.395,8.742-0.154,13.088
	c0.208,3.758,1.384,7.462,1.595,11.22c0.29,5.17,3.589,11.645,0.073,15.85c-3.745,4.478-17.231,5.129-22.982,4.129
	c-4.565-0.794-8.735-7.452-12.721-9.814c-5.974-3.538-8.067-9.057-8.353-15.382c-0.768-17.014-1.093-34.049-1.939-51.058
	c-0.471-9.468-1.857-18.888-2.412-28.354c-0.498-8.504-0.272-17.048-0.641-25.562c-0.476-10.975-1.413-21.932-1.79-32.909
	c-0.239-6.946,0.312-13.915,0.268-20.873c-0.043-6.721-0.458-13.439-0.573-20.161c-0.035-2.051,0.585-4.112,0.552-6.163
	c-0.116-7.257-0.47-14.51-0.571-21.767c-0.093-6.711,0.091-13.425,0.033-20.137c-0.124-14.237-3.26-28.474-3.541-42.708
	c-0.079-3.985-2.109-4.403-5.882-2.711c-7.438,3.334-15.242,9.801-31.435,8.65c-3.274-0.233-6.474-1.27-9.651-2.147
	c-2.533-0.699-5.243-1.291-7.42-2.655c-8.284-5.19-16.985-9.631-22.973-18.12c-3.275-4.643-5.378-9.682-8.141-14.467
	c-1.236-2.141-4.506-10.359-5.058-6.855c-5.897,37.396-12.911,44.757-19.563,61.063c-1.653,4.052-11.547,14.331-15.284,14.94
	c-11.811,1.924-9.716,2.727-21.604-0.735c-4.807-1.4-9.462-0.897-13.263-3.996c-4.869-3.97-9.684-8.559-12.912-13.862
	c-5.264-8.647-7.07-18.798-8.571-28.699c-1.001-6.601-0.354-13.455-0.402-20.195c-0.054-7.475,0.392-14.986-0.197-22.416
	c-0.826-10.423-1.337-20.968-3.603-31.182c-0.892-4.022-1.427-12.752-8.094-10.752c-13.832,4.15-17.379,13.747-21.403,20.898
	c-3.467,6.161-4.653,11.541-7.333,17.667c-4.694,10.731-0.056,31.102-1.196,42.224c-1.203,11.738,0.144,23.642-0.004,35.476
	c-0.059,4.702,0.307,9.415,0.601,14.115c0.268,4.287-4.416,9.748-8.631,10.676c-4.008,0.882-7.933,2.29-12.014,2.674
	c-12.423,1.169-20.757-3.497-22.909-15.205c-0.536-2.915-1.626-6.042-2.413-9.107c-0.527-2.054-0.751-4.439-4.282-4.372
	c-3.715,4.706-7.267,8.5-11.82,13.187c-11.333,11.667-31.36,11.293-39.667,8.333c-4.907-1.749-19-6.333-24.81-13.747
	c-8.267-10.548-8.542-10.985-11.757-16.206c-2.734-4.439-5.016-5.006-7.951-0.804c-4.125,5.906-10.725,8.23-16.357,11.94
	c-2.886,1.902-6.109,3.285-9.142,4.972c-7.207,4.008-14.837,4.54-22.998,4.212c-5.684-0.229-11.292-0.576-16.255-2.876
	c-6.092-2.823-12.875-4.866-17.292-10.549c-2.55-3.281-4.947-3.769-7.85-0.847c-5.231,5.264-10.884,9.973-16.637,14.652
	c-5.63,4.578-15.893,8.442-22.9,10.099c-6.284,1.486-13.44-1.581-11.623,4.598c1.996,6.79-1.575,19.907-0.356,26.893
	c3.541,20.295,7.022,61.404,9.207,81.889c1.243,11.656,2.111,35.104,2.914,46.799c1.284,18.703,5.543,62.512,3.329,81.128
	c-1.178,9.904-6.545,22.711-10.354,31.928c-2.156,5.217-8.952,14.91-13.715,17.94c-4.026,2.561-8.636,0.729-13.183-0.122
	c-8.334-2.264-18.529-6.933-23.367-20.628c-1.461-4.136-2.181-8.583-2.83-12.948c-1.439-9.675-2.937-19.36-3.811-29.095
	c-0.86-9.58-1.135-19.223-1.378-28.846c-0.222-8.775,0.085-17.563-0.114-26.339c-0.13-5.745-0.889-11.474-1.105-17.22
	c-0.208-5.542-0.034-11.098-0.113-16.647c-0.093-6.542-0.303-13.082-0.411-19.624c-0.058-3.485,0.025-6.971-0.011-10.456
	c-0.085-8.044-0.292-16.088-0.286-24.131c0.007-9.614,0.261-19.227,0.254-28.841c-0.003-4.578-0.502-9.154-0.532-13.732
	c-0.06-9.269,0.035-18.538,0.09-27.807c0.036-6.062,0.168-12.123,0.155-18.184c-0.008-3.706-3.284-5.543-6.448-3.379
	c-5.092,3.482-15.77,8.534-21.359,11.146c-8.261,3.861-16.515,7.617-25.348,9.882c-8.283,2.124-14.663,1.508-13.353,12.698
	c2.521,21.528-3.605,64.734-0.344,86.162c2.94,19.316,7.364,58.172,8.802,77.657c1.251,16.937,1.314,51.323-2.423,67.89
	c-2.864,12.696-11.993,36.282-24.773,38.743c-13.994,2.695-31.228-7.866-38.825-38.73c-1.903-7.733-1.217-15.902-1.401-23.866
	c-0.155-6.698,0.364-13.409,0.392-20.115c0.013-3.135-0.583-6.27-0.636-9.409c-0.152-9.042-0.292-18.088-0.21-27.13
	c0.137-15.084-0.394-30.24,0.898-45.233c1.672-19.392,1.206-38.812,2.293-58.195c0.671-11.973,1.197-23.96,1.47-35.948
	c0.134-5.889,0.957-18.906-0.74-18.166c-24.408,10.652-27.803,12.926-50.158,11.245c-8.366-0.629-23.578-9.584-30.069-14.899
	c-4.78-3.915-7.686-9.819-10.499-15.273c-2.827-5.481-4.373-11.618-6.558-17.438c-0.542-1.445-0.55-3.942-2.087-4.163
	c-4.095-0.59-8.562,8.988-11.358,12.037c-4.266,4.652-13.132,13.648-17.726,17.975c-2.687,2.531-6.134,4.457-9.567,5.823
	c-5.239,2.085-10.614,4.055-16.14,5.194c-13.389,2.759-25.389,0.009-34.503-2.799c-13.483-4.155-24.336-14.69-33.636-24.691
	c-2.722-2.928-5.05-1.019-7.892,1.845c-3.709,3.738-7.05,7.839-10.678,11.661c-2.226,2.345-4.579,4.599-7.073,6.654
	c-9.111,7.51-20.022,11.771-30.435,17.004c-9.753,4.901-20.126,7.407-30.647,8.884c-11.338,1.591-22.6-0.569-33.497-4.125
	c-2.881-0.94-5.76-1.929-8.538-3.13c-2.497-1.079-5.054-2.159-7.268-3.751c-5.614-4.039-16.5-13.073-20.159-18.941
	c-1.894-3.038,5.084-5.73,8.478-6.868c2.396-0.803,9-8.079,10.508-5.817c7.94,11.91,11.222,14.377,17.951,18.335
	c8.5,5,20.978,8.288,30.75,6.5c11.71-2.143,27.437-7.902,39.75-17.25c7.371-5.596,16.644-16.404,23.38-22.748
	c2.63-2.477,4.955-5.338,7.051-8.285c0.639-0.898,0.559-2.98-0.057-3.994c-6.273-10.323-9.148-21.881-12.033-33.37
	c-2.844-11.329-5.447-22.758-7.329-34.278c-1.576-9.645-2.28-19.469-2.785-29.244c-0.516-9.971-0.512-19.982-0.368-29.971
	c0.102-7.069,0.81-14.13,1.259-21.194c0.228-3.576,0.46-7.152,0.729-10.725c0.458-6.097,0.897-12.197,1.445-18.287
	c0.248-2.762-0.412-3.97-3.579-3.569c-8.783,1.111-17.584,2.214-26.413,2.784c-12.862,0.831-25.751,1.3-38.635,1.701
	c-4.794,0.149-9.635-0.079-14.402-0.604c-3.04-0.335-5.977-1.564-8.977-2.329c-1.912-0.488-3.854-0.859-5.367-2.055
	c-2.17-1.155-4.25-2.555-6.535-3.4c-2.61-0.965-7.977-7.328-6.944-9.325c0.9-1.739,2.906-3.909,4.581-4.054
	c5.029-0.433,10.148,0.327,15.207,0.085c10.532-0.503,21.074-1.094,31.563-2.134c9.113-0.904,18.132-2.734,27.242-3.683
	c9.972-1.039,20-1.54,30.005-2.268c6.047-0.44,6.818-1.6,7.658-7.413c1.028-7.111,2.682-14.136,4.183-21.174
	c0.963-4.516,2.117-9.003,3.157-13.489c1.583-6.828,5.564-20.321,8.235-26.801c6.808-16.515,13.979-34.261,38.568-51.612
	c8.874-6.262,24.483-3.508,32.557-2.325c4.934,0.723,11.321,3.75,15.104,8.01c8.684,9.777,17.315,35.288,21.011,47.903
	c2.739,9.347,3.178,17.076,3.489,22.168c0.895,14.676,0.417,22.154-1.25,35.7c-0.712,5.786,0.223,5.502,5.859,6.223
	c5.363,0.687,10.748,1.548,15.958,2.946c3.23,0.867,6.153,2.879,9.35,4.443c0.6,5.501-3.78,11.452-9.644,11.825
	c-6.551,0.417-13.15,0.086-19.728,0.081c-1.317-0.001-2.634,0-4.88,0c-1.432,5.647-3.086,15.465-4.242,21.296
	c-3.074,15.503-12.209,45.857-17.506,60.747c-4.208,11.829-10.271,27.663-13.667,36.333c-3.114,7.95-8.747,17.078-12.338,24.855
	c-3.699,8.012-8.36,15.583-12.638,23.325c-1.501,2.717-4.503,8.984-6.105,11.643c-3.028,5.026,0.244,10.38,2.082,14.761
	c3.821,9.108,8.933,14.027,16.428,20.75c2.287,2.051,5.038,3.63,7.726,5.164c1.041,0.594,2.6,0.882,3.743,0.594
	c6.668-1.68,13.551-3.075,18.761-8.039c5.191-4.946,10.585-9.779,15.108-15.302c5.516-6.736,10.069-14.249,15.312-21.221
	c4.703-6.254,8.026-12.895,10.642-20.431c4.655-13.413,17.404-39.239,19.771-53.237c2.175-12.859,6.624-19.316,13.508-19.192
	c4.928,0.088,13.845,1.266,18.432,1.913c1.887,0.266,3.799,0.353,5.727,0.524c8.299,6.836,4.689,15.115,2.582,23.399
	c-2.503,9.843-4.75,19.757-6.824,29.699c-0.72,3.453-0.445,7.103-0.897,10.627c-0.437,3.404-1.432,6.738-1.826,10.145
	c-1.975,17.074-6.193,28.359,2.14,48.693c2.285,5.574,6.333,19.333,18.442,19.778c11.138,0.409,16.588-5.471,23.06-14.105
	c2.673-3.566,11.254-10.169,12.832-14.339c4.399-11.627,4.146-21.303,5.447-30.069c2.405-16.205,0.513-32.77,0.26-49.148
	c-0.242-15.685-1.638-31.353-1.654-47.043c-0.011-10.516,0.817-31.538,0.993-42.052c0.174-10.392,0.531-31.177,0.87-41.565
	c0.413-12.661,1.073-37.997,1.986-50.632c0.81-11.207,2.271-22.371,3.948-33.475c1.181-7.818,2.303-15.888,5.208-23.142
	c3.691-9.217,7.338-18.819,14.303-26.259c4.715-5.037,9.957-10.214,16.921-11.693c4.932-1.048,15.048-1.75,20.091-1.778
	c7.881-0.045,15.764,0.635,23.055,5.693c4.295,2.98,8.851,5.482,12.266,9.524c8.552,10.118,12.587,38.014,13.559,51.226
	c0.67,9.101-0.371,27.391-1.11,36.487c-0.918,11.311-1.395,25.111-3.475,36.26c-2.667,14.292-5.333,35.333-9.667,49
	c-1.364,4.302-9.66,35.361-13.333,46.667c-5.817,17.906-7.567,26.658-17,46.333c-4.593,9.58-8.605,14.359-8.73,17.224
	c-0.493,11.305-0.424,33.946-0.616,45.261c-0.129,7.587-0.092,15.181,0.024,22.769c0.046,3.014,3.135,5.028,6.092,3.636
	c5.048-2.376,9.867-5.243,14.76-7.943c2.745-1.515,5.642-2.851,8.124-4.726c4.543-3.431,8.924-7.095,13.195-10.863
	c4.039-3.563,7.76-7.485,11.791-11.056c2.763-2.448,4.224-5.037,4.187-8.976c-0.15-16.047,0.093-32.098,0.152-48.147
	c0.032-8.776-0.086-17.554-0.003-26.33c0.079-8.359,0.381-16.715,0.49-25.074c0.073-5.555-0.294-11.129,0.038-16.665
	c0.313-5.228,1.443-10.401,1.934-15.624c1.469-15.621,2.741-31.261,4.222-46.88c0.512-5.4,1.397-10.767,2.086-16.147
	c0.981-7.665,3.484-22.923,4.902-30.519c0.988-5.29,3.438-15.776,4.637-21.022c1.442-6.305,2.249-12.798,4.178-18.943
	c3.17-10.094,7.004-19.98,10.624-29.93c1.403-3.858,2.616-7.865,4.59-11.411c4.736-8.508,13.486-17.383,22.975-19.787
	c1.512-0.383,3.173-0.737,4.737-1.221c13.677-4.231,26.207-1.874,37.21,7.146c4.854,3.979,7.439,4.98,13.455,11.619
	c1.877,2.071,3.571,4.313,5.178,6.595c1.313,1.866,2.476,3.867,3.478,5.918c1.581,3.238,3.416,6.451,4.327,9.89
	c1.032,3.893,1.143,8.042,1.621,12.054c2.005,16.82,0.338,41.82-3.122,55.14c-3.896,15.001-9.548,45.564-14.207,60.346
	c-2.351,7.459-5.257,15.083-8.906,22.205c-3.785,7.386-9.735,22.936-12.388,30.8c-3.29,9.749-7.838,18.742-11.373,27.995
	c-5.965,15.614-16.62,42.667-26.776,56.572c-2.722,3.727-2.812,7.972-2.417,12.278c0.693,7.557,1.544,15.099,2.18,22.66
	c0.232,2.76,0.037,5.555,0.037,8.435c3.607,1.129,10.276-1.75,13.364-4.611c5.278-4.89,16.81-22.83,20.278-28.333
	c7.956-12.622,13.522-25.908,21-39c7.333-12.838,10.437-23.315,19.333-32.333c5.796-5.875,14.824-15.552,22.333-19
	c6.526-2.996,13.065-4.073,19.417-5.25c4.201-0.778,9.126-1.156,13.375-1.397c6.617-0.376,13.28-0.571,19.891-0.227
	c4.217,0.219,8.354,1.699,12.567,2.344c5.654,0.866,11.348,1.479,17.028,2.172c0.473,0.058,1.034,0.018,1.452-0.185
	c8.604-7.79,13.767-1.804,21.798,2.828c2.918,1.683,5.212,4.948,7.311,7.852c0.6,0.83,0.062,3.402-0.83,4.214
	c-2.425,2.209-4.894,3.544-5.341,6.649c-0.83,5.771-0.895,12.616-1.59,18.394c-0.703,5.847-0.093,11.851-0.771,17.704
	c-1.14,9.841-0.744,19.657-0.142,29.456C766.169,454.269,765.669,459.046,778.169,458.769z M567.336,220.626
	c-1.117,6.132-1.747,12.345-2.679,18.509c-0.753,4.985-1.848,9.928-2.376,14.933c-0.318,3.016-0.504,6.415-0.736,9.45
	c-0.618,8.073-0.643,15.841-1.325,23.91c-1.336,15.796-2.68,31.593-3.781,47.407c-0.418,6.01-0.283,12.069-0.138,18.1
	c0.026,1.091,1.325,2.152,2.036,3.226c0.562-0.089,1.124-0.178,1.686-0.267c4.832-12.282,9.681-24.557,14.486-36.85
	c1.435-3.672,2.72-7.403,4.122-11.088c2.458-6.457,5.247-12.805,7.356-19.373c2.401-7.479,4.094-15.183,6.306-22.728
	c2.453-8.366,4.453-16.029,6.627-24.463c1.422-5.516,2.437-11.938,3.716-17.503c3.261-14.192,4.996-28.49,3.833-43.035
	c-0.559-6.989-0.548-10.462-2.013-17.82c-0.956-5.821-3.452-13.74-6.677-18.297c-1.808-2.555-7.243-2.034-8.608,0.53
	c-6.582,12.363-10.891,25.023-14.468,38.526C572.297,192.872,569.019,211.388,567.336,220.626z M190.351,403.034
	c5.076-8.618,8.189-18.267,11.791-27.59c3.022-7.823,5.316-15.928,7.893-23.921c1.669-5.175,3.367-10.344,4.873-15.568
	c1.772-6.148,3.77-12.275,4.919-18.548c2.029-11.071,3.337-22.273,5.249-33.368c1.012-5.875,0.192-7.157-5.875-6.646
	c-13.412,1.129-26.848,2.071-40.034,5.029c-3.372,0.756-5.514,2.871-5.523,6.126c-0.011,3.94-0.239,7.88-0.444,11.817
	c-0.284,5.44-0.742,10.873-0.922,16.316c-0.146,4.403-0.177,5.18-0.107,9.588c0.015,0.966,0.108,6.434,0.151,7.298
	c0.849,16.702,0.701,28.863,1.099,40.702c0.546,16.253,2.75,38.75,7.976,40.22C184.895,415.474,188.506,406.166,190.351,403.034z
	 M443.16,174.672c-1.522,8.972-3.386,27.092-4.415,36.134c-1.701,14.949-2.283,25.453-2.046,40.476
	c0.251,15.857,0.348,47.814,1.136,63.653c0.248,4.99,1.03,16.832,4.833,20.333c3.488,3.211,5.579-9.865,6.632-12.985
	c6.534-19.348,10.336-52.34,13.361-69.753c2.088-12.019,3.999-24.14,4.523-36.331c0.488-11.347,0.304-34.105-0.603-45.427
	c-0.554-6.919-1.855-13.777-3.299-20.556c-0.828-3.887-3.409-4.293-6.685-2.171C447.503,153.936,446.17,156.936,443.16,174.672z
	 M191.698,196.953c-2.257,5.068-4.046,10.381-5.474,15.735c-1.876,7.032-3.365,14.184-4.67,21.348
	c-1.067,5.853-1.763,11.787-2.301,17.714c-0.135,1.49-0.365,3.227,0.899,3.994c0,0,5.263-0.456,7.204-0.463
	c11.973-0.043,34.499,0.686,41.48-0.012c6.667-0.667,1.609-35.013,1-46.667c-0.404-7.725-3.585-22.932-4.56-30.606
	c-0.66-5.195-2.638-9.739-5.691-14.063c-4.189-5.935-7.197-5.381-12.083-0.003C200.836,171.269,195.421,188.592,191.698,196.953z
	 M656.836,465.936c3.656,1.679,10.841-5.998,13.671-9.278c3.373-3.909,6.814-7.817,9.671-12.095
	c2.99-4.477,5.578-9.273,7.886-14.145c4.226-8.919,8.745-17.779,11.976-27.068c3.396-9.765,5.525-19.98,7.991-30.051
	c0.78-3.186,1.082-6.534,1.21-9.823c0.164-4.192-1.421-5.762-5.269-4.379c-4.661,1.676-9.285,3.906-13.336,6.738
	c-7.831,5.475-12.991,13.563-18.668,21.047c-3.775,4.977-10.347,15.679-13.044,21.314c-2.978,6.222-7.553,14.02-8.754,20.74
	C648.18,440.064,641.836,459.046,656.836,465.936z"/>
<path fill="#FFFFFF" d="M945.89,787.916c-8.136,8.476-21.387,22.02-40.175,24.382c-3.693,0.464-7.615-0.356-11.108-1.032
	c-13.77-2.664-30.77-10.997-40.662-37.707c-1.261-3.405-1.96-7.34-6.006-9.527c-1.262,1.677-2.429,3.215-3.582,4.762
	c-6.879,9.224-13.462,18.689-20.744,27.582c-4.148,5.067-9.731,8.935-14.13,13.828c-4.992,5.552-11.914,8.065-18.078,11.266
	c-6.995,3.632-14.616,5.44-23.638,4.058c-16.931-2.593-32.597-3.593-46.419-28.639c-3.969-7.193-5.503-15.568-7.288-23.613
	c-2.728-12.298-7.888-24.34-7.181-49.873c0.177-6.375-0.114-12.769-0.229-19.154c-0.062-3.435-0.577-6.875-0.462-10.298
	c0.333-9.877,0.913-19.746,1.325-29.621c0.088-2.101-0.244-4.218-0.178-6.321c0.516-16.352,1.117-32.701,1.61-49.054
	c0.149-4.93-0.107-9.874,0.095-14.8c0.152-3.693,0.293-7.487,1.227-11.028c2.049-7.768,0.482-18.498,7.109-23.037
	c7.081-4.851,25.9-0.656,34.319,1.014c3.061,0.607,4.292,3.328,4.314,6.07c0.144,17.722-1.635,53.144-1.887,70.865
	c-0.283,19.868-0.784,39.737-0.924,59.608c-0.085,12.038-0.024,24.111,0.804,36.111c0.668,9.687,2.552,19.292,3.955,28.925
	c0.95,6.519,1.738,13.079,3.096,19.516c0.971,4.605-0.223,12.298,4.334,13.485c7.901,2.057,16.783-5.081,25.779-20.045
	c6.766-11.255,13.253-22.213,20.127-33.158c7.045-11.217,14.324-22.415,19.972-34.345c5.45-11.512,8.762-24.019,13.367-35.953
	c3.688-9.557,7.832-18.942,11.931-28.334c1.329-3.045,3.799-3.806,7.281-3.688c3.047,0.103,6.142-1.545,9.235-2.348
	c1.608-0.417,3.249-0.916,4.888-0.964c3.914-0.113,7.835,0.037,11.753,0.04c0.945,0.001,1.932-0.381,2.828-0.211
	c8.22,1.559,16.422,3.216,24.636,4.809c2.11,0.409,4.234,0.825,6.371,1.015c9.127,0.812,16.108,5.887,22.902,11.366
	c0.511,0.412,1.153,0.747,1.491,1.274c3.433,5.351,5.41,6.086,11.094,4.871c4.943-1.057,9.977-1.682,14.966-2.529
	c3.88-0.658,7.736-1.482,11.632-2.02c6.056-0.836,12.114-1.756,18.213-2.179c3.231-0.224,9.708-0.379,12.947-0.418
	c6.663-0.081,13.602,2.801,18.012,9.497c2.032,3.085,1.604,6.24-1.73,7.996c-3.055,1.61-6.304,2.858-9.501,4.184
	c-0.573,0.238-1.449,0.337-1.95,0.066c-5.51-2.982-11.632-2.066-16.989-0.973c-8.022,1.638-16.602,1.022-24.096,5.55
	c-2.937,1.775-6.833,1.892-10.19,3.06c-4.666,1.625-5.041,2.71-2.72,6.985c4.235,7.8,7.201,16.254,7.961,24.883
	c0.9,10.201,1.576,20.847-2.166,30.702c-2.461,6.481-6.054,12.614-9.767,18.539C959.639,769.778,951.138,782.448,945.89,787.916z
	 M917.294,760.894c5.375-7.688,9.25-34.875,9.361-45.926c0.028-2.774-1.721-8.149-2.52-10.805c-0.375-1.246-2.123-2.741-3.31-2.806
	c-5.393-0.295-10.823,0.093-16.216-0.2c-2.928-0.159-4.702,1.13-5.162,3.513c-1.28,6.631-2.763,13.319-3.025,20.029
	c-0.386,9.879-0.038,19.811,0.491,29.693c0.316,5.898,1.418,11.773,2.466,17.605c0.686,3.819,3.07,4.539,5.842,2.53
	C910.919,770.394,914.179,765.351,917.294,760.894z M918.17,672.517c-1.087-1.773-1.768-3.586-3.04-4.757
	c-1.222-1.126-5.039-5.089-6.628-5.142c-0.88-0.03-6.23,4.811-6.658,6.053c-0.786,2.28-1.048,4.74-1.496,6.966
	C906.114,678.936,914.193,678.361,918.17,672.517z"/>
<path fill="#FFFFFF" d="M286.844,195.318c5.017-0.614,9.666-1.608,14.315-1.608c3.31,0,6.642,1.251,9.925,2.099
	c7.161,1.85,14.384,3.288,20.98,7.131c4.076,2.374,3.346,5.548,2.601,8.515c-0.743,2.956-2.698,6.127-6.345,5.872
	c-5.709-0.399-11.421-1.244-17.029-2.4c-3.33-0.686-6.396-2.581-9.705-3.469c-3.031-0.814-5.319-2.044-6.659-5.071
	c-0.421-0.952-1.955-1.699-3.117-1.987C286.406,203.06,285.057,200.367,286.844,195.318z"/>
</svg>
