<?xml version="1.0" encoding="utf-8"?>
<!-- Generator: Adobe Illustrator 17.0.0, SVG Export Plug-In . SVG Version: 6.00 Build 0)  -->
<!DOCTYPE svg PUBLIC "-//W3C//DTD SVG 1.1//EN" "http://www.w3.org/Graphics/SVG/1.1/DTD/svg11.dtd">
<svg version="1.1" xmlns="http://www.w3.org/2000/svg" xmlns:xlink="http://www.w3.org/1999/xlink" x="0px" y="0px" width="229px"
	 height="228px" viewBox="0 0 229 228" enable-background="new 0 0 229 228" xml:space="preserve">
<g id="Layer_1" display="none">
</g>
<g id="Layer_2">
</g>
<g id="Layer_3" display="none">
</g>
<g id="Layer_4">
</g>
<g id="Layer_5">
	<g>
		<path fill="#FFFFFF" d="M83.611,237.484c0,0-0.106-1.829-0.306-5.257c-0.16-3.427-0.431-8.456-0.6-14.858
			c-0.188-6.402-0.392-14.18-0.41-23.104c-0.021-4.462-0.023-9.212,0.007-14.221c0.039-5.009,0.159-10.273,0.297-15.77
			c0.144-5.497,0.332-11.224,0.581-17.153c0.267-5.928,0.642-12.055,1.071-18.356c0.435-6.301,0.953-12.776,1.58-19.395
			c0.62-6.621,1.452-13.372,2.382-20.245c0.94-6.872,2.041-13.857,3.386-20.927c1.318-7.074,2.953-14.22,5.001-21.411
			c2.094-7.188,4.513-14.442,8.162-21.636c0.439-0.9,0.925-1.798,1.435-2.694l0.756-1.344l0.83-1.338l0.417-0.668l0.209-0.334
			l0.105-0.167l0.158-0.234l0.765-1.132c0.515-0.759,0.991-1.486,1.61-2.334c1.172-1.668,2.355-3.228,3.563-4.781l1.872-2.308
			l1.977-2.246c5.391-5.888,11.949-11.236,20.092-14.455c4.053-1.575,8.517-2.605,13.17-2.537c4.624,0.06,9.476,1.309,13.469,4.02
			c3.989,2.698,6.939,6.751,8.268,11.086c1.379,4.338,1.281,8.837,0.291,12.863c-0.989,4.048-2.861,7.674-5.115,10.828
			c-2.276,3.154-4.915,5.902-7.757,8.281c-2.811,2.378-5.921,4.447-8.909,6.176c-2.92,1.697-5.689,3.453-8.675,5.013
			c-5.913,3.221-11.815,6.019-17.675,8.514c-11.703,5.025-23.146,8.984-34.007,11.601c-10.867,2.589-21.123,3.85-30.247,3.838
			c-2.277,0.055-4.489-0.1-6.615-0.172c-2.128-0.191-4.177-0.317-6.136-0.617c-1.963-0.228-3.826-0.624-5.607-0.948
			c-1.769-0.415-3.458-0.781-5.033-1.26c-6.33-1.786-11.011-4.119-14.018-5.981c-1.504-0.94-2.61-1.745-3.339-2.326
			c-0.364-0.298-0.637-0.521-0.823-0.691c-0.196-0.178-0.295-0.268-0.295-0.268c-0.512-0.47-0.546-1.265-0.076-1.777
			c0.47-0.512,1.265-0.546,1.777-0.076c-0.018-0.016,0.285,0.235,0.976,0.712c0.691,0.471,1.763,1.135,3.223,1.903
			c2.928,1.506,7.444,3.451,13.525,4.741c1.509,0.357,3.131,0.598,4.819,0.884c1.707,0.199,3.481,0.455,5.355,0.561
			c1.861,0.189,3.818,0.204,5.836,0.283c2.027-0.04,4.122,0.003,6.289-0.164c8.67-0.405,18.374-2.219,28.7-5.096
			c10.326-2.919,21.224-7.17,32.371-12.482c2.81-1.274,5.573-2.767,8.403-4.192c2.87-1.365,5.603-2.993,8.503-4.422
			c1.435-0.71,2.876-1.539,4.349-2.316c1.468-0.784,2.943-1.573,4.425-2.365l1.113-0.595l0.503-0.269l0.51-0.295
			c0.68-0.395,1.371-0.779,2.026-1.211c1.346-0.822,2.617-1.743,3.863-2.697c1.234-0.964,2.405-2.01,3.484-3.124
			c1.106-1.095,2.088-2.294,2.958-3.553c1.796-2.483,3-5.305,3.54-8.134c0.529-2.833,0.217-5.699-0.881-8.057
			c-1.124-2.347-2.995-4.139-5.239-5.034c-2.237-0.917-4.776-1.059-7.352-0.525c-2.577,0.519-5.184,1.632-7.688,3.165
			c-2.509,1.517-4.96,3.372-7.304,5.474c-2.373,2.066-4.642,4.376-6.874,6.796c-1.101,1.229-2.193,2.479-3.27,3.759
			c-1.064,1.301-2.119,2.622-3.077,3.912c-2.212,2.972-3.808,5.307-5.358,8.208c-3.075,5.711-5.537,12.164-7.671,18.695
			c-4.166,13.155-7.235,26.759-9.67,40.027c-1.234,6.639-2.265,13.215-3.285,19.663c-1.012,6.449-1.912,12.783-2.722,18.963
			c-0.815,6.18-1.517,12.208-2.194,18.044c-0.696,5.835-1.317,11.482-1.878,16.91c-0.531,5.433-1.039,10.64-1.523,15.593
			c-0.486,4.955-0.918,9.661-1.305,14.085c-0.735,8.858-1.375,16.58-1.903,22.94c-0.954,12.74-1.499,20.019-1.499,20.019
			l-0.001,0.013c-0.034,0.459-0.434,0.803-0.893,0.768C83.959,238.235,83.634,237.895,83.611,237.484z"/>
	</g>
	<g>
		<path fill="#FFFFFF" d="M140.186,85.656c0,0,0.161,0.238,0.11,0.703c-0.013,0.465-0.116,1.156-0.203,2.057
			c-0.13,1.801-0.284,4.443-0.421,7.804c-0.12,3.361-0.336,7.443-0.362,12.121c0.002,4.678-0.041,9.957,0.023,15.715
			c0.034,5.758,0.106,11.995,0.047,18.593c-0.046,3.3-0.059,6.689-0.22,10.155c-0.171,3.466-0.454,7.009-0.684,10.612
			c-0.229,3.602-0.318,7.262-0.288,10.966c0.008,1.852,0.091,3.714,0.133,5.586c0.056,1.668,0.182,3.576,0.319,5.383
			c0.564,7.325,1.163,14.815,2.6,21.985c0.712,3.573,1.62,7.08,2.841,10.239c0.614,1.57,1.323,3.045,2.12,4.269
			c0.789,1.23,1.685,2.151,2.443,2.597c0.76,0.428,1.375,0.56,2.422,0.373c1.024-0.193,2.304-0.819,3.544-1.675
			c2.512-1.74,4.894-4.253,7.056-6.858c4.336-5.281,7.988-11.101,11.268-16.694c1.62-2.846,3.195-5.614,4.719-8.292
			c1.535-2.69,2.968-5.346,4.391-7.878c0.706-1.268,1.462-2.516,2.165-3.731c0.732-1.208,1.5-2.375,2.224-3.509
			c1.501-2.207,2.924-4.271,4.263-6.178c2.655-3.844,4.97-7.196,6.876-9.956c3.751-5.562,5.895-8.741,5.895-8.741l0.008-0.012
			c0.66-0.979,1.989-1.237,2.968-0.577c0.959,0.647,1.225,1.939,0.614,2.911c0,0-2.047,3.254-5.629,8.947
			c-1.8,2.842-3.985,6.293-6.491,10.252c-1.271,1.976-2.589,4.066-3.953,6.257c-0.643,1.105-1.312,2.215-1.961,3.391
			c-0.628,1.197-1.287,2.388-1.931,3.663c-1.28,2.551-2.648,5.199-3.973,8.018c-0.689,1.395-1.321,2.832-2.045,4.28
			c-0.719,1.454-1.471,2.922-2.245,4.407c-3.123,5.93-6.589,12.127-11.111,18.205c-2.301,3.02-4.809,6.051-8.264,8.728
			c-1.748,1.309-3.766,2.58-6.393,3.278c-1.307,0.336-2.768,0.512-4.266,0.358c-1.496-0.134-2.976-0.603-4.262-1.263
			c-2.584-1.355-4.348-3.295-5.716-5.178c-1.368-1.908-2.385-3.86-3.256-5.81c-1.725-3.903-2.856-7.832-3.793-11.751
			c-0.928-3.92-1.625-7.836-2.191-11.737c-0.577-3.9-0.961-7.791-1.175-11.666c-0.097-1.963-0.181-3.815-0.197-5.89
			c-0.013-1.872,0.016-3.736-0.03-5.587c-0.078-3.703-0.274-7.359-0.609-10.952c-0.335-3.594-0.721-7.127-0.994-10.587
			c-0.262-3.46-0.374-6.847-0.517-10.144c-0.251-6.594-0.362-12.83-0.497-18.587c-0.104-5.757-0.301-11.032-0.436-15.708
			c-0.162-4.676-0.498-8.75-0.717-12.106c-0.235-3.355-0.466-5.991-0.649-7.788c-0.113-0.898-0.236-1.586-0.263-2.05
			c-0.065-0.464,0.089-0.706,0.089-0.706c2.95-4.628,9.093-5.988,13.721-3.038C138.47,83.602,139.453,84.587,140.186,85.656z"/>
	</g>
</g>
</svg>
