<?xml version="1.0" encoding="utf-8"?>
<!-- Generator: Adobe Illustrator 17.0.0, SVG Export Plug-In . SVG Version: 6.00 Build 0)  -->
<!DOCTYPE svg PUBLIC "-//W3C//DTD SVG 1.1//EN" "http://www.w3.org/Graphics/SVG/1.1/DTD/svg11.dtd">
<svg version="1.1" id="Layer_1" xmlns="http://www.w3.org/2000/svg" xmlns:xlink="http://www.w3.org/1999/xlink" x="0px" y="0px"
	 width="100px" height="100px" viewBox="0 0 100 100" enable-background="new 0 0 100 100" xml:space="preserve">
<g>
	<g>
		<defs>
			<path id="SVGID_1_" d="M51.569,17.941c18.403,0,33.321,14.906,33.321,33.293S69.972,84.527,51.569,84.527
				c-18.403,0-33.321-14.906-33.321-33.293S33.166,17.941,51.569,17.941L51.569,17.941z"/>
		</defs>
		<clipPath id="SVGID_2_">
			<use xlink:href="#SVGID_1_"  overflow="visible"/>
		</clipPath>
	</g>
	<g>
		<defs>
			<path id="SVGID_3_" d="M50,85.662c-19.691,0-35.71-15.998-35.71-35.662c0-19.664,16.019-35.662,35.71-35.662
				c19.69,0,35.71,15.998,35.71,35.662C85.71,69.664,69.691,85.662,50,85.662L50,85.662z M80.116,54.882
				c-1.043-0.329-9.441-2.83-18.999-1.302c3.989,10.948,5.613,19.865,5.926,21.718C73.885,70.677,78.757,63.357,80.116,54.882
				L80.116,54.882z M61.915,78.087c-0.454-2.672-2.225-11.987-6.507-23.1c-0.067,0.023-0.134,0.045-0.201,0.068
				c-17.204,5.987-23.38,17.902-23.929,19.022c5.172,4.027,11.671,6.43,18.722,6.43C54.225,80.508,58.252,79.645,61.915,78.087
				L61.915,78.087z M27.339,70.414c0.691-1.181,9.062-15.023,24.793-20.101c0.397-0.128,0.798-0.249,1.202-0.362
				c-0.766-1.731-1.6-3.463-2.473-5.17c-15.232,4.553-30.013,4.362-31.348,4.335c-0.009,0.309-0.016,0.619-0.016,0.931
				C19.498,57.87,22.468,65.013,27.339,70.414L27.339,70.414z M20.143,43.808c1.364,0.018,13.931,0.073,28.198-3.711
				c-5.054-8.972-10.505-16.515-11.309-17.617C28.499,26.499,22.12,34.355,20.143,43.808L20.143,43.808z M42.852,20.432
				c0.843,1.127,6.383,8.661,11.381,17.832c10.846-4.06,15.438-10.223,15.986-11.003C64.833,22.489,57.75,19.585,50,19.585
				C47.539,19.585,45.146,19.88,42.852,20.432L42.852,20.432z M73.61,30.784c-0.643,0.869-5.754,7.412-17.032,12.01
				c0.71,1.451,1.39,2.927,2.024,4.412c0.224,0.527,0.443,1.05,0.657,1.572c10.149-1.274,20.233,0.768,21.239,0.981
				C80.431,42.569,77.859,35.967,73.61,30.784L73.61,30.784z"/>
		</defs>
		<clipPath id="SVGID_4_">
			<use xlink:href="#SVGID_3_"  overflow="visible"/>
		</clipPath>
		<rect x="10.667" y="11" clip-path="url(#SVGID_4_)" fill="#F15F4F" width="78" height="76"/>
	</g>
</g>
</svg>
