<svg width="42" height="17" viewBox="0 0 42 17" fill="none" xmlns="http://www.w3.org/2000/svg">
<path d="M30.0551 1.78551C29.6212 1.44372 29.5466 0.81497 29.8884 0.381147C30.2302 -0.0526765 30.8589 -0.12729 31.2928 0.214493L30.0551 1.78551ZM40 8.34746L40.6189 7.56195L41.5958 8.33161L40.6343 9.12052L40 8.34746ZM31.3082 16.7731C30.8813 17.1234 30.2512 17.0613 29.9009 16.6343C29.5505 16.2074 29.6126 15.5773 30.0396 15.2269L31.3082 16.7731ZM39.4348 7.5C39.9871 7.5 40.4348 7.94772 40.4348 8.5C40.4348 9.05228 39.9871 9.5 39.4348 9.5V7.5ZM1 9.5C0.447715 9.5 0 9.05228 0 8.5C0 7.94772 0.447715 7.5 1 7.5V9.5ZM31.2928 0.214493L40.6189 7.56195L39.3811 9.13296L30.0551 1.78551L31.2928 0.214493ZM40.6343 9.12052L31.3082 16.7731L30.0396 15.2269L39.3657 7.5744L40.6343 9.12052ZM39.4348 9.5H1V7.5H39.4348V9.5Z" fill="#F9D6A1"/>
</svg>
