<svg width="42" height="17" viewBox="0 0 42 17" fill="none" xmlns="http://www.w3.org/2000/svg">
<path d="M11.9449 1.78551C12.3788 1.44372 12.4534 0.81497 12.1116 0.381147C11.7698 -0.0526764 11.1411 -0.12729 10.7072 0.214493L11.9449 1.78551ZM2 8.34746L1.38115 7.56195L0.404228 8.33161L1.36567 9.12052L2 8.34746ZM10.6918 16.7731C11.1187 17.1234 11.7488 17.0613 12.0991 16.6343C12.4495 16.2074 12.3874 15.5773 11.9604 15.2269L10.6918 16.7731ZM2.56522 7.5C2.01293 7.5 1.56522 7.94772 1.56522 8.5C1.56522 9.05229 2.01293 9.5 2.56522 9.5V7.5ZM41 9.5C41.5523 9.5 42 9.05229 42 8.5C42 7.94772 41.5523 7.5 41 7.5V9.5ZM10.7072 0.214493L1.38115 7.56195L2.61885 9.13296L11.9449 1.78551L10.7072 0.214493ZM1.36567 9.12052L10.6918 16.7731L11.9604 15.2269L2.63433 7.5744L1.36567 9.12052ZM2.56522 9.5H41V7.5H2.56522V9.5Z" fill="#F9D6A1"/>
</svg>
