<?xml version="1.0" encoding="utf-8"?>
<!-- Generator: Adobe Illustrator 17.0.0, SVG Export Plug-In . SVG Version: 6.00 Build 0)  -->
<!DOCTYPE svg PUBLIC "-//W3C//DTD SVG 1.1//EN" "http://www.w3.org/Graphics/SVG/1.1/DTD/svg11.dtd">
<svg version="1.1" id="Layer_1" xmlns="http://www.w3.org/2000/svg" xmlns:xlink="http://www.w3.org/1999/xlink" x="0px" y="0px"
	 width="100px" height="100px" viewBox="0 0 100 100" enable-background="new 0 0 100 100" xml:space="preserve">
<g>
	<g>
		<circle fill="#F15F4F" cx="50" cy="50" r="35.195"/>
		<g>
			<path fill="#FFFFFF" d="M40.705,35.895c1.325,0,2.52,0.115,3.612,0.351c1.086,0.231,2.014,0.615,2.797,1.142
				c0.771,0.527,1.375,1.229,1.807,2.112c0.422,0.87,0.634,1.96,0.634,3.249c0,1.394-0.316,2.558-0.949,3.489
				c-0.638,0.929-1.574,1.692-2.826,2.284c1.705,0.49,2.966,1.352,3.803,2.579c0.841,1.235,1.253,2.712,1.253,4.445
				c0,1.404-0.269,2.613-0.806,3.63c-0.542,1.029-1.28,1.864-2.19,2.508c-0.917,0.649-1.97,1.126-3.15,1.436
				c-1.166,0.31-2.378,0.466-3.618,0.466H27.65v-27.69H40.705z M39.916,47.083c1.08,0,1.975-0.256,2.683-0.776
				c0.701-0.512,1.041-1.358,1.041-2.518c0-0.644-0.113-1.177-0.34-1.59c-0.235-0.413-0.546-0.737-0.939-0.963
				c-0.39-0.236-0.831-0.398-1.342-0.486c-0.502-0.098-1.029-0.137-1.568-0.137h-5.704v6.47H39.916z M40.253,58.869
				c0.602,0,1.173-0.053,1.71-0.173c0.545-0.119,1.029-0.308,1.436-0.587c0.408-0.269,0.745-0.637,0.991-1.105
				c0.246-0.464,0.364-1.067,0.364-1.795c0-1.427-0.401-2.44-1.2-3.056c-0.8-0.607-1.867-0.909-3.179-0.909h-6.628v7.625H40.253z"/>
			<path fill="#FFFFFF" d="M59.527,58.777c0.824,0.806,2.017,1.211,3.561,1.211c1.111,0,2.071-0.281,2.876-0.84
				c0.798-0.559,1.284-1.157,1.471-1.777h4.85c-0.779,2.414-1.962,4.136-3.575,5.174c-1.595,1.042-3.54,1.561-5.806,1.561
				c-1.579,0-3-0.256-4.277-0.759c-1.275-0.51-2.341-1.225-3.238-2.156c-0.874-0.936-1.553-2.042-2.036-3.341
				c-0.479-1.292-0.72-2.723-0.72-4.274c0-1.499,0.251-2.9,0.74-4.194c0.5-1.299,1.191-2.42,2.1-3.36
				c0.911-0.945,1.991-1.691,3.249-2.236c1.258-0.543,2.645-0.816,4.181-0.816c1.696,0,3.182,0.326,4.455,0.991
				c1.269,0.656,2.309,1.544,3.127,2.657c0.817,1.111,1.399,2.381,1.762,3.805c0.36,1.422,0.487,2.908,0.383,4.464H58.164
				C58.164,56.471,58.7,57.972,59.527,58.777z M65.854,48.243c-0.654-0.724-1.763-1.116-3.115-1.116c-0.88,0-1.608,0.148-2.191,0.45
				c-0.57,0.298-1.037,0.668-1.394,1.105c-0.355,0.444-0.598,0.912-0.738,1.412c-0.142,0.488-0.226,0.93-0.252,1.322h8.96
				C66.992,50.012,66.512,48.973,65.854,48.243z"/>
			<rect x="57.037" y="37.753" fill="#FFFFFF" width="11.224" height="2.732"/>
		</g>
	</g>
</g>
</svg>
