<?xml version="1.0" encoding="utf-8"?>
<!-- Generator: Adobe Illustrator 17.0.0, SVG Export Plug-In . SVG Version: 6.00 Build 0)  -->
<!DOCTYPE svg PUBLIC "-//W3C//DTD SVG 1.1//EN" "http://www.w3.org/Graphics/SVG/1.1/DTD/svg11.dtd">
<svg version="1.1" id="Layer_1" xmlns="http://www.w3.org/2000/svg" xmlns:xlink="http://www.w3.org/1999/xlink" x="0px" y="0px"
	 width="100px" height="100px" viewBox="0 0 100 100" enable-background="new 0 0 100 100" xml:space="preserve">
<g>
	<g>
		<path fill="#F15F4F" d="M85.041,33.342c0,1.1-0.811,2.39-1.803,2.866L52.344,51.052c-0.991,0.476-2.614,0.476-3.605,0
			L17.844,36.208c-0.991-0.476-1.803-1.766-1.803-2.866v-5.973c0-1.1,0.9-2,2-2h65c1.1,0,2,0.9,2,2V33.342z M48.741,57.111
			c0.99,0.48,2.61,0.48,3.6,0l30.9-14.967c0.99-0.48,1.8,0.028,1.8,1.128v31.848c0,1.1-0.9,2-2,2h-65c-1.1,0-2-0.9-2-2V43.271
			c0-1.1,0.81-1.608,1.8-1.128L48.741,57.111z"/>
	</g>
</g>
</svg>
