<?xml version="1.0" encoding="utf-8"?>
<!-- Generator: Adobe Illustrator 17.0.0, SVG Export Plug-In . SVG Version: 6.00 Build 0)  -->
<!DOCTYPE svg PUBLIC "-//W3C//DTD SVG 1.1//EN" "http://www.w3.org/Graphics/SVG/1.1/DTD/svg11.dtd">
<svg version="1.1" id="Layer_1" xmlns="http://www.w3.org/2000/svg" xmlns:xlink="http://www.w3.org/1999/xlink" x="0px" y="0px"
	 width="100px" height="100px" viewBox="0 0 100 100" enable-background="new 0 0 100 100" xml:space="preserve">
<path fill-rule="evenodd" clip-rule="evenodd" fill="#F15F4F" d="M49.998,13.968c-20.113,0-36.422,16.308-36.422,36.427
	c0,16.091,10.436,29.744,24.911,34.561c1.821,0.334,2.486-0.79,2.486-1.756c0-0.865-0.032-3.155-0.049-6.195
	c-10.132,2.201-12.27-4.883-12.27-4.883c-1.656-4.208-4.044-5.328-4.044-5.328c-3.307-2.26,0.25-2.214,0.25-2.214
	c3.655,0.258,5.579,3.754,5.579,3.754c3.249,5.566,8.525,3.959,10.601,3.027c0.331-2.354,1.272-3.959,2.313-4.87
	c-8.088-0.919-16.591-4.044-16.591-18.002c0-3.976,1.419-7.228,3.749-9.774c-0.375-0.921-1.625-4.625,0.357-9.64
	c0,0,3.058-0.979,10.017,3.734c2.905-0.808,6.021-1.212,9.119-1.226c3.093,0.014,6.209,0.418,9.119,1.226
	c6.954-4.713,10.007-3.734,10.007-3.734c1.987,5.015,0.737,8.718,0.362,9.64c2.334,2.546,3.744,5.798,3.744,9.774
	c0,13.993-8.516,17.072-16.631,17.974c1.308,1.125,2.473,3.348,2.473,6.745c0,4.87-0.045,8.798-0.045,9.992
	c0,0.974,0.656,2.107,2.505,1.752c14.461-4.826,24.888-18.47,24.888-34.557C86.425,30.276,70.115,13.968,49.998,13.968z"/>
</svg>
