<?xml version="1.0" encoding="utf-8"?>
<!-- Generator: Adobe Illustrator 17.0.0, SVG Export Plug-In . SVG Version: 6.00 Build 0)  -->
<!DOCTYPE svg PUBLIC "-//W3C//DTD SVG 1.1//EN" "http://www.w3.org/Graphics/SVG/1.1/DTD/svg11.dtd">
<svg version="1.1" id="Layer_1" xmlns="http://www.w3.org/2000/svg" xmlns:xlink="http://www.w3.org/1999/xlink" x="0px" y="0px"
	 width="100px" height="100px" viewBox="0 0 100 100" enable-background="new 0 0 100 100" xml:space="preserve">
<g>
	<g>
		<g>
			<path fill="#F15F4F" d="M76.579,18.799H23.406c-2.542,0-4.606,2.015-4.606,4.496v53.402c0,2.485,2.064,4.503,4.606,4.503h53.173
				c2.545,0,4.622-2.018,4.622-4.503V23.295C81.201,20.815,79.123,18.799,76.579,18.799z"/>
			<path fill="#FFFFFF" d="M28.047,42.195h9.259v29.779h-9.259V42.195z M32.677,27.391c2.959,0,5.364,2.405,5.364,5.365
				c0,2.963-2.405,5.368-5.364,5.368c-2.967,0-5.365-2.405-5.365-5.368C27.312,29.795,29.71,27.391,32.677,27.391"/>
			<path fill="#FFFFFF" d="M43.111,42.195h8.879v4.067h0.126c1.236-2.34,4.256-4.81,8.758-4.81c9.365,0,11.095,6.166,11.095,14.187
				v16.334h-9.245V57.493c0-3.455-0.068-7.897-4.811-7.897c-4.816,0-5.551,3.762-5.551,7.647v14.731h-9.252V42.195z"/>
		</g>
	</g>
</g>
</svg>
