<?xml version="1.0" encoding="utf-8"?>
<!-- Generator: Adobe Illustrator 17.0.0, SVG Export Plug-In . SVG Version: 6.00 Build 0)  -->
<!DOCTYPE svg PUBLIC "-//W3C//DTD SVG 1.1//EN" "http://www.w3.org/Graphics/SVG/1.1/DTD/svg11.dtd">
<svg version="1.1" id="Layer_1" xmlns="http://www.w3.org/2000/svg" xmlns:xlink="http://www.w3.org/1999/xlink" x="0px" y="0px"
	 width="100px" height="100px" viewBox="0 0 100 100" enable-background="new 0 0 100 100" xml:space="preserve">
<path fill="#F15F4F" d="M88.195,26.309c-2.811,1.246-5.831,2.089-9.001,2.468c3.236-1.94,5.721-5.011,6.891-8.671
	c-3.028,1.796-6.382,3.1-9.952,3.803c-2.859-3.046-6.932-4.949-11.439-4.949c-8.656,0-15.673,7.017-15.673,15.672
	c0,1.228,0.139,2.424,0.406,3.572C36.401,37.55,24.853,31.31,17.123,21.829c-1.349,2.315-2.122,5.007-2.122,7.879
	c0,5.437,2.767,10.234,6.972,13.045c-2.569-0.081-4.986-0.786-7.099-1.96c-0.001,0.065-0.001,0.131-0.001,0.197
	c0,7.593,5.402,13.928,12.572,15.367c-1.315,0.358-2.7,0.55-4.129,0.55c-1.01,0-1.992-0.098-2.949-0.281
	c1.994,6.226,7.782,10.758,14.64,10.884c-5.364,4.203-12.121,6.709-19.464,6.709c-1.265,0-2.513-0.074-3.739-0.219
	c6.936,4.447,15.174,7.041,24.024,7.041c28.827,0,44.591-23.881,44.591-44.591c0-0.679-0.015-1.355-0.045-2.027
	C83.437,32.212,86.094,29.452,88.195,26.309z"/>
</svg>
