<?xml version="1.0" encoding="utf-8"?>
<!-- Generator: Adobe Illustrator 17.0.0, SVG Export Plug-In . SVG Version: 6.00 Build 0)  -->
<!DOCTYPE svg PUBLIC "-//W3C//DTD SVG 1.1//EN" "http://www.w3.org/Graphics/SVG/1.1/DTD/svg11.dtd">
<svg version="1.1" id="Layer_1" xmlns="http://www.w3.org/2000/svg" xmlns:xlink="http://www.w3.org/1999/xlink" x="0px" y="0px"
	 width="46px" height="46px" viewBox="0 0 46 46" enable-background="new 0 0 46 46" xml:space="preserve">
<g>
	<path fill="#666666" d="M34.515,17H11.485C10.389,17,9.5,16.097,9.5,15s0.889-2,1.985-2h23.029c1.097,0,1.985,0.903,1.985,2
		S35.611,17,34.515,17z M36.5,23c0-1.097-0.889-2-1.985-2H11.485C10.389,21,9.5,21.903,9.5,23s0.889,2,1.985,2h23.029
		C35.611,25,36.5,24.097,36.5,23z M36.5,31c0-1.097-0.889-2-1.985-2H11.485C10.389,29,9.5,29.903,9.5,31s0.889,2,1.985,2h23.029
		C35.611,33,36.5,32.097,36.5,31z"/>
</g>
</svg>
