<?xml version="1.0" encoding="utf-8"?>
<!-- Generator: Adobe Illustrator 17.0.0, SVG Export Plug-In . SVG Version: 6.00 Build 0)  -->
<!DOCTYPE svg PUBLIC "-//W3C//DTD SVG 1.1//EN" "http://www.w3.org/Graphics/SVG/1.1/DTD/svg11.dtd">
<svg version="1.1" id="Layer_1" xmlns="http://www.w3.org/2000/svg" xmlns:xlink="http://www.w3.org/1999/xlink" x="0px" y="0px"
	 width="1158.116px" height="918.092px" viewBox="0 0 1158.116 918.092" enable-background="new 0 0 1158.116 918.092"
	 xml:space="preserve">
<path fill="#FFFFFF" d="M282.024,301.969c-31.43,18.704-46.543,65.863-37.687,99.974c5.896,22.708,12.198,45.295,17.964,68.038
	c1.749,6.899,8.095,18.181,2.377,24.578c-5.092,5.697-19.188,8.015-26.396,6.823c-13.098-2.165-24.912-23.347-28.226-34.99
	c-5.962-20.944-12.099-41.267-19.985-61.623c-3.006-7.759-4.523-17.925-9.32-24.785c-3.095-4.427-16.734,11.186-19.71,13.128
	c-7.706,5.029-16.433,8.209-25.471,9.81c-4.526,0.802-9.114,1.228-13.706,1.391c-6.014,0.213-10.714-4.231-16.497-5.049
	c-0.208-6.141,15.684-5.889,19.545-6.344c10.414-1.228,16.454-3.419,24.125-10.749c6.09-5.819,13.791-12.587,18.575-19.476
	c6.584-9.481-0.752-19.008-4.556-28.15c-16.516-39.694-28.324-84.273-33.943-126.898c-2.815-21.351-3.512-42.936-2.775-64.447
	c0.719-20.976,8.309-40.2,14.275-60.003c5.254-17.438,16.662-33.824,29.255-46.998c6.472-6.77,14.074-10.909,22.848-13.98
	c11.821-4.138,15.342,0.208,26.881,3.525c38.839,11.165,53.937,44.677,58.536,82.891c5.125,42.585,5.657,87.922-6.211,129.458
	c-5.398,18.892-16.248,33.629-24.182,51.162c-3.687,8.148-0.328,7.677,6.403,3.965c8.836-4.873,18.812-6.874,28.318-9.983
	c18.712-6.121,34.007,6.996,44.631,21.062c12.468,16.505,15.996,35.251,22.261,54.623c6.109,18.889,7.69,38.893,12.438,58.103
	c1.146,4.637,3.168,20.69,10.635,14.737c8.29-6.609,12.467-17.529,16.938-26.807c3.938-8.173,7.516-16.512,10.121-25.214
	c3.131-10.456-1.519-10.944-8.877-16.614c-14.287-11.007-25.291-34.757-31.805-51.115c-7.34-18.432-8.33-38.568-3.557-57.773
	c4.464-17.96,8.343-39.935,23.886-51.971c15.396-11.922,32.396-12.587,50.041-6.976c19.429,6.178,26.589,19.039,31.72,37.821
	c11.184,40.935,0.052,84.366-11.569,123.976c-4.32,14.724,5.316,15.211,18.68,11.242c17.289-5.134,35.265-18.659,43.861-34.562
	c3.659-6.769,9.097-14.907,10.774-22.435c1.897-8.518-5.588-16.761-9.245-23.804c-9.682-18.646-16.421-38.77-20.785-59.297
	c-8.72-41.019-9.273-80.611,1.973-121.39c5.559-20.156,9.55-40.099,13.965-60.489c4.588-21.189,16.648-31.963,37.379-35.013
	c13.83-2.034,34.784-11.541,45.975,1.091c11.459,12.934,14.222,38.978,16.067,55.454c2.332,20.834-0.36,41.742-0.84,62.594
	c-0.51,22.157-2.813,44.553-5.964,66.484c-3.044,21.189-8.129,42.022-14.013,62.586c-2.785,9.732-5.814,19.398-9.271,28.914
	c-3.717,10.233-10.616,21.084-10.44,32.232c0.253,16.064,13.468,35.348,24.069,46.721c15.678,16.819,34.87,1.416,46.004-11.995
	c5.699-6.864,12.243-12.388,10.011-21.949c-2.156-9.239-2.885-18.705-3.606-28.143c-1.767-23.144-2.5-46.001-1.745-69.214
	c1.455-44.706,6.974-90.495,18.371-133.816c4.837-18.388,11.427-36.369,18.473-53.956c2.655-6.625,7.253-15.751,15.425-15.812
	c11.344-0.085,23.136-3.354,34.259-5.404c45.425-8.375,44.851,55.641,43.808,86.601c-1.454,43.201-11.067,87.084-25.379,127.78
	c-6.827,19.413-14.54,37.595-24.11,55.839c-4.785,9.123-10.22,17.733-15.867,26.336c-5.047,7.688-15.515,17.024-15.838,26.648
	c-0.392,11.691,12.282,37.98,26.469,31.354c18.365-8.578,30.015-28.521,41.622-44.237c5.631-7.625,13.362-14.879,17.997-23.096
	c4.111-7.288,3.536-16.477,5.088-24.472c1.711-8.812,3.884-18.373,8.814-25.997c6.682-10.333,9.476-12.121,21.142-15.323
	c9.242-2.536,18.258-5.943,26.714-10.473c10.107-5.415,16.526-0.096,25.487,3.993c7.997,3.65,15.642,0.028,23.016-3.236
	c10.063-4.455,20.283-8.649,30.923-11.532c17.147-4.646,36.495-11.217,54.383-10.761c13.285,0.339,41.703,7.022,46.912,21.523
	c6.779,18.873-15.922,16.957-26.395,12.987c-22.183-8.408-37.131-11.911-60.04-3.344c-9.549,3.571-18.723,8.066-27.672,12.929
	c-8.326,4.523-9.329,7.529-4.13,15.779c4.556,7.23,8.4,10.722,11.271,19.366c3.642,10.963,6.625,22.256,7.021,33.862
	c1.163,34.013-39.539,77.477-74.648,75.484c-15.47-0.878-39.773-7.461-49.41-20.312c-3.856-5.142-7.042-16.314-12.766-19.405
	c-4.458-2.408-15.279,14.681-18.242,17.53c-12.046,11.586-28.836,19.171-45.679,19.05c-21.807-0.157-34.311-14.899-52.322-23.702
	c-5.213-2.548-13.351,5.465-17.581,7.648c-8.243,4.255-17.107,6.742-26.336,7.618c-21.194,2.012-38.551-6.51-55.037-19.005
	c-7.646-5.795-14.833-12.22-21.176-19.429c-4.815-5.472-17.803,9.133-21.925,12.091c-16.035,11.508-35.26,20.677-55.239,21.755
	c-8.979,0.484-20.635-2.861-29.208-0.209c-6.13,1.896-7.421,12.29-10.425,17.153c-10.009,16.205-19.985,30.64-32.954,44.647
	c-11.953,12.91-24.576,24.085-43.026,17.69c-17.212-5.965-29.181-19.519-37.084-35.512c-10.262-20.764-12.529-43.695-17.052-66.092
	c-2.458-12.173-5.083-24.324-6.882-36.618C291.802,322.19,289.611,306.446,282.024,301.969
	C267.879,310.387,283.81,303.023,282.024,301.969z M248.987,164.133c1.356-22.331-1.911-43.684-7.735-65.166
	c-2.843-10.486-4.947-20.6-10.828-29.926c-3.898-6.182-11.904-18.776-19.257-21.091c-13.518-4.256-21.489,43.051-22.316,50.285
	c-2.818,24.617-2.795,50.316-2.336,75.068c0.428,23.06,5.502,46.891,11.34,69.178c2.99,11.413,6.795,22.628,10.142,33.942
	c0.64,2.164,4.681,23.027,9.543,17.402c12.747-14.747,20.463-41.134,24.49-59.83C246.827,211.724,249.781,186.912,248.987,164.133
	C249.788,150.956,249.649,183.134,248.987,164.133z M721.424,66.574c-12.072,7.666-15.819,31.256-19.124,43.937
	c-4.487,17.216-8.673,34.116-10.31,51.872c-1.768,19.171-3.546,38.38-5.06,57.571c-0.682,8.642-1.201,17.295-1.72,25.948
	c-0.44,7.336-4.284,21.712-1.599,28.499c1.933,4.885,9.552-12.654,10.1-14.287c3.058-9.116,5.298-18.536,8.169-27.719
	c5.7-18.228,11.795-36.081,15.715-54.818c4.094-19.57,6.812-38.967,8.319-58.894c0.621-8.207,0.935-16.197,0.159-24.412
	C725.326,86.35,725.78,73.416,721.424,66.574C716.941,69.421,724.248,71.01,721.424,66.574z M831.597,339.794
	c-0.977,11.085,5.558,47.859,21.751,31.988c14.783-14.492,17.381-36.977,14.782-56.631c-0.75-5.675-13.199-49.744-23.142-40.573
	c-6.242,5.757-8.12,21.625-9.665,29.523C833.023,315.861,832.051,327.835,831.597,339.794
	C830.578,351.359,832.38,319.168,831.597,339.794z M564.539,56.157c-8.079,2.305-8.357,26.288-9.536,32.865
	c-2.751,15.352-5.699,30.613-7.501,46.116c-1.656,14.25-2.711,28.578-2.863,42.926c-0.087,8.192-3.483,34.745,4.161,40.106
	c6.194-2.823,6.237-24.714,7.082-30.604c2.204-15.36,3.904-30.798,5.87-46.19c1.821-14.255,3.864-28.522,4.811-42.868
	C567.332,86.892,571.008,66.704,564.539,56.157C562.101,56.852,567.378,60.786,564.539,56.157z M413.159,314.289
	c11.377,0.649,8.726-68.225,0.334-77.017c-5.536-5.8-6.643,29.368-6.501,33.042C407.539,284.464,407.457,301.109,413.159,314.289
	C415.954,314.448,409.093,304.89,413.159,314.289z"/>
<path fill="#FFFFFF" d="M212.229,641.655c-8.237-0.381-16.439,4.641-23.937,7.443c-9.564,3.575-19.275,7.199-29.548,7.978
	c-12.057,0.915-46.981-2.594-53.27-15.255c-3.775-7.601,23.036,0.768,24.833,1.109c10.268,1.952,20.682,0.08,30.227-3.925
	c9.757-4.094,19.571-8.053,29.482-11.761c8.146-3.047,25.485-5.257,30.673-12.644c5.218-7.43,4.811-19.229,5.765-27.868
	c0.978-8.86,3.88-19.359,2.691-28.253c-1.445-10.812-0.586-5.223,4.227-13.163c2.917-4.812,27.282-3.573,32.331-3.126
	c21.972,1.945,14.551,24.063,12.716,39.553c-0.657,5.541-4.949,21.05-0.919,25.467c2.299,2.52,6.393,2.735,9.301,4.051
	c5.207,2.357,9.307,6.405,13.356,10.317c5.468,5.282,0.733,13.697-7.075,10.591c-3.039-1.209-16.226-6.129-18.791-2.647
	c-4.066,5.52-2.149,18.624-2.469,25.135c-0.599,12.198-1.204,24.397-1.659,36.602c-0.772,20.749-1.093,41.498,0.489,62.219
	c1.313,17.213,2.132,46.146,14.214,59.623c3.895,4.344,23.396-31.898,26.059-36.467c8.134-13.961,17.688-28.235,23.493-43.543
	c2.454-6.471,7.122-11.43,8.938-17.903c2.554-9.106,6.141-17.875,9.899-26.54c8.015-18.483,19.003-40.492,18.192-61.129
	c-0.837-21.306-3.77-42.585-4.928-63.893c-1.039-19.123,3.448-41.902-3.233-59.821c7.357-2.11,11.314-10.57,19.185-13.123
	c9.928-3.221,17.322,1.253,26.502,4.194c17.246,5.526,13.58,36.8,13.199,50.652c-0.542,19.707-4.312,39.225-1.9,58.816
	c1.185,9.625,0.549,19.442,2.518,28.972c1.937,9.375,9.933,1.79,15.828-0.738c15.921-6.827,35.411-11.216,48.205,3.8
	c13.441,15.776,15.206,39.259,18.675,58.739c1.558,8.748,1.015,45.165,18.995,39.87c7.391-2.176,12.786-9.813,16.673-15.875
	c2.801-4.369,5.54-8.779,8.155-13.263c5.024-8.614,5.456-8.235-1.417-14.951c-26.76-26.15-37.143-64.399-36.693-100.958
	c0.425-34.472,1.246-78.974,35.179-97.586c7.563-4.148,15.455-9.785,24.352-10.366c8.047-0.525,13.314,5.144,20.399,5.985
	c7.807,0.927,13.593,6.04,18.796,11.499c8.002,8.397,7.064,16.532,9.064,27.331c5.441,29.378-3.208,59.089-3.025,88.445
	c0.169,27.12-9.359,53.883-16.355,79.623c16.937-0.192,16.391-33.547,22.452-44.103c4.064-7.078,2.948-17.344,3.228-25.167
	c0.407-11.335,0.302-22.772,1.895-34.023c2.531-17.882,8.923-35.002,18.247-50.442c9.934-16.451,20.997-34.28,36.267-46.239
	c25.975-20.342,81.43-31.889,89.151,12.254c3.449,19.717,1.504,40.894,0.708,60.777c-0.952,23.757-1.942,47.536-1.269,71.316
	c0.564,19.933,6.866,40.264,5.513,60.143c-1.056,15.516,8.207,37.218,22.635,45.116c7.421,4.062,44.212-4.424,37.094-15.48
	c-10.707-16.63-17.717-35.497-19.801-55.201c-3.889-36.753,8.138-79.291,39.678-100.672c7.45-5.05,15.142-9.971,23.773-12.748
	c7.658-2.464,12.829-7.221,20.822-5.074c18.135,4.872,29.672,17.045,34.996,34.861c2.377,7.954,6.354,17.122,5.742,25.516
	c-0.682,9.34-3.95,18.896-6.453,27.876c-5.663,20.313-12.908,40.187-22.319,59.075c-4.125,8.279-8.852,16.344-15.063,23.25
	c-7.669,8.527-5.845,11.888,1.336,20.434c11.133,13.249,26.917,29.132,45.826,25.577c34.695-6.524,76.283-26.073,111.069-9.444
	c15.601,7.458,24.093,24.859,32.245,39.24c4.955,8.74,3.045,10.73-0.063,18.95c-2.858,7.557-9.819,11.327-17.874,7.761
	c-14.136-6.258-28.602-11.678-38.124-24.639c-3.995-5.437-8.214-16.391-14.947-18.817c-7.611-2.742-18.977,3.529-26.619,4.956
	c-19.89,3.712-37.421,10.963-57.97,6.103c-20.348-4.812-39.036-17.12-56.962-27.427c-5.505-3.165-10.457-9.99-16.932-10.988
	c-7.831-1.208-17.815,4.471-25.596,5.858c-9.523,1.696-19.217,2.275-28.88,2.168c-10.617-0.118-18.022-5.835-26.871-10.697
	c-15.911-8.742-28.52-13.359-38.096-29.985c-10.226-17.754-14.487-37.961-18.216-57.882c-8.102-43.282-3.656-85.537-2.744-129.109
	c0.1-4.76,2.787-22.25-1.571-25.325c-7.952,1.409-14.39,11.871-18.693,17.863c-11.877,16.54-22.623,36.014-25.469,56.37
	c-5.556,39.742,4.462,81.298-24.952,114.083c-11.957,13.326-28.872,20.517-46.796,17.812c-5.3-0.8-10.801-4.001-14.565,1.143
	c-5.284,7.224-10.388,14.179-17.303,19.98c-11.784,9.885-26.366,15.369-41.625,16.684c-17.144,1.478-36.002-9.018-50.279-17.679
	c-14.269-8.656-19.181-24.829-22.354-40.262c-0.782-3.806-1.092-21.618-6.327-22.48c-6.705-1.104-8.069,20.031-8.432,23.756
	c-2,20.551-0.404,42.301,1.405,62.836c1.591,18.056,8.243,40.426-8.952,53.407c-10.629,8.024-34.952,6.638-37.655-9.459
	c-3.419-20.362-8.037-40.536-11.558-60.931c-1.096-6.346-0.767-12.824-4.121-18.565c-13.884,10.798-18.734,34.016-26.194,49.341
	c-8.543,17.549-18.265,36.521-31.105,51.362c-26.307,30.405-70.628,8.394-85.167-22.738c-6.877-14.726-14.641-31.704-17.027-47.619
	c-1.565-10.442-11.274,7.448-12.153,8.985c-5.36,9.374-11.974,18.265-18.759,26.66c-24.889,30.796-65.58,42.992-100.734,21.791
	c-30.674-18.5-53.66-58.758-62.035-92.82c-2.36-9.599-6.051-18.279-9.303-27.563c-3.129-8.932-2.139-20.967-6.318-29.064
	c-3.483-6.748,14.015-0.633,15.141,0.014c7.261,4.172,11.88,11.252,15.467,18.603c7.966,16.327,16.509,32.98,23.423,49.759
	c8.06,19.56,12.833,38.179,26.783,54.797c5.568,6.633,10.315,13.025,19.662,12.306c8.032-0.618,15.749-3.284,22.343-7.931
	c15.797-11.133,29.331-29.864,38.611-46.534c8.745-15.71,18.62-30.693,24.531-47.787c3.437-9.939,6.253-20.053,9.835-29.952
	C208.271,660.468,213.608,650.728,212.229,641.655C204.984,641.32,212.645,644.391,212.229,641.655z M581.929,548.645
	c0-2.103,0.485-25.995-3.473-21.38c-6.325,7.375-9.41,18.938-11.432,28.195c-4.833,22.123-4.183,45.24-4.186,67.768
	c0,3.101,0.315,23.112,5.736,23.052c5.764-0.063,5.753-18.916,6.251-22.49C578.327,598.667,580.854,574.003,581.929,548.645
	C581.929,542.681,581.139,567.282,581.929,548.645z M894.44,606.728c-16.867,21.913-24.601,48.375-21.109,75.897
	c9.312-0.762,13.891-27.241,16.467-34.247C894.069,636.758,902.766,618.475,894.44,606.728
	C876.807,629.635,896.588,609.758,894.44,606.728z"/>
<path fill="#FFFFFF" d="M1029.743,706.747c2.209-14.296,4.646-28.876,11.591-41.763c5.319-9.871,10.041-19.067,13.236-29.688
	c8.411-27.956,15.204-56.569,24.476-84.254c8.814-26.318,18.7-52.485,26.731-79.032c1.056-3.492,0.904-28.872,6.56-27.192
	c4.988,1.482,14.77-1.215,16.872,5.445c2.187,6.93,9.207,9.751,11.566,16.212c3.859,10.569-5.239,23.087-7.278,33.129
	c-3.103,15.286-8.273,29.708-12.453,44.676c-8.601,30.797-16.929,61.521-26.485,92.043c-4.627,14.778-8.699,29.782-12.656,44.753
	c-1.454,5.5-2.619,10.347-6.261,14.884c-4.442,5.531-3.44,9.245-5.496,15.735c-3.141,9.911-12.476,19.058-23.666,17.708
	C1038.194,728.404,1028.701,714.59,1029.743,706.747C1032.21,690.781,1028.873,713.292,1029.743,706.747z"/>
<path fill="#FFFFFF" d="M979.592,831.605c7.914,4.498,17.958,1.136,26.515,3.805c8.938,2.788,12.511,6.101,16.967,14.056
	c7.431,13.266,3.207,34.222-8.977,43.717c-11.346,8.843-37.055,3.145-43.799-9.946C960.169,863.574,976.62,849.85,979.592,831.605
	C985.389,834.9,978.252,839.831,979.592,831.605z"/>
</svg>
