<?xml version="1.0" encoding="utf-8"?>
<!-- Generator: Adobe Illustrator 17.0.0, SVG Export Plug-In . SVG Version: 6.00 Build 0)  -->
<!DOCTYPE svg PUBLIC "-//W3C//DTD SVG 1.1//EN" "http://www.w3.org/Graphics/SVG/1.1/DTD/svg11.dtd">
<svg version="1.1" id="Layer_1" xmlns="http://www.w3.org/2000/svg" xmlns:xlink="http://www.w3.org/1999/xlink" x="0px" y="0px"
	 width="374.981px" height="221.152px" viewBox="0 19.657 374.981 221.152" enable-background="new 0 19.657 374.981 221.152"
	 xml:space="preserve">
<g id="Layer_1_1_" display="none">
</g>
<g id="Layer_2">
</g>
<g id="Layer_3" display="none">
</g>
<g id="Layer_4">
</g>
<g id="Layer_5">
	<g>
		<path fill="#FFFFFF" d="M55.014,152.678c0,0-0.039-0.882-0.113-2.537c-0.062-1.653-0.17-4.077-0.22-7.163
			c-0.062-3.086-0.115-6.834-0.085-11.134c0.012-4.301,0.09-9.154,0.291-14.448c0.178-5.296,0.479-11.034,0.973-17.1
			c0.474-6.069,1.124-12.468,2.14-19.075s2.264-13.443,4.473-20.323c1.127-3.437,2.44-6.902,4.491-10.296l0.398-0.634l0.221-0.34
			l0.185-0.272l0.756-1.1c0.559-0.791,1.128-1.551,1.703-2.287c1.166-1.481,2.441-2.91,3.873-4.219
			c2.852-2.596,6.361-4.84,10.55-5.656c2.076-0.399,4.334-0.373,6.457,0.314c2.122,0.671,4.031,2.092,5.224,3.917
			c1.204,1.831,1.673,3.983,1.578,5.992c-0.102,2.019-0.703,3.918-1.616,5.573c-1.816,3.331-4.562,5.839-7.476,7.767
			c-0.192,0.124-0.347,0.235-0.569,0.369l-0.525,0.323l-1.047,0.644c-0.697,0.428-1.391,0.853-2.081,1.277
			c-1.427,0.807-2.869,1.603-4.304,2.348c-2.881,1.442-5.763,2.728-8.615,3.877c-5.706,2.288-11.286,4.043-16.57,5.144
			c-5.287,1.085-10.25,1.561-14.658,1.522c-4.409,0.004-8.253-0.549-11.348-1.275c-3.101-0.723-5.464-1.619-7.03-2.352
			c-1.568-0.731-2.364-1.272-2.411-1.303c-0.582-0.379-0.747-1.158-0.368-1.741c0.379-0.582,1.158-0.747,1.741-0.368
			c-0.049-0.032,0.638,0.392,2.096,0.977c1.456,0.573,3.665,1.333,6.59,1.878c1.46,0.273,3.092,0.515,4.886,0.644
			c1.789,0.155,3.736,0.228,5.818,0.171c4.164-0.074,8.86-0.683,13.883-1.83c5.03-1.122,10.37-2.883,15.848-5.17
			c1.38-0.545,2.735-1.213,4.13-1.824c1.376-0.66,2.768-1.329,4.176-2.005c1.378-0.722,2.789-1.393,4.217-2.113
			c0.721-0.369,1.446-0.74,2.174-1.113l1.095-0.559l0.549-0.28l0.491-0.266c2.695-1.466,5.217-3.496,6.654-6.164
			c0.683-1.329,1.12-2.783,1.07-4.202c-0.02-1.415-0.527-2.759-1.396-3.716c-0.844-0.985-2.05-1.533-3.308-1.69
			c-1.273-0.146-2.614,0.113-3.912,0.62c-2.612,1.047-4.999,3.044-7.224,5.258c-1.109,1.123-2.183,2.322-3.216,3.578
			c-0.517,0.64-1.011,1.277-1.477,1.91l-0.752,1.055l-0.19,0.268l-0.14,0.21l-0.309,0.474c-1.631,2.578-2.901,5.651-3.974,8.767
			c-2.104,6.287-3.568,12.85-4.757,19.234c-0.591,3.198-1.1,6.364-1.559,9.474c-0.477,3.108-0.897,6.16-1.273,9.138
			c-0.739,5.958-1.338,11.615-1.857,16.845c-0.493,5.232-0.903,10.037-1.25,14.3c-0.315,4.267-0.589,7.987-0.815,11.05
			c-0.205,3.067-0.365,5.477-0.475,7.12c-0.096,1.642-0.148,2.518-0.148,2.518l-0.001,0.011c-0.027,0.459-0.421,0.809-0.88,0.782
			C55.368,153.447,55.034,153.097,55.014,152.678z"/>
	</g>
	<g>
		<path fill="#FFFFFF" d="M69.877,127.317c0.99,0.501,2.179,0.883,3.325,1.125c1.162,0.239,2.348,0.323,3.516,0.256
			c1.169-0.043,2.329-0.236,3.44-0.598c1.122-0.324,2.184-0.844,3.207-1.426c1.004-0.624,1.978-1.307,2.88-2.1
			c0.915-0.775,1.755-1.654,2.556-2.569l1.172-1.409l1.089-1.491c0.371-0.49,0.676-1.037,1.017-1.552
			c0.337-0.52,0.669-1.042,0.967-1.592l0.925-1.625c0.299-0.548,0.565-1.117,0.85-1.675c0.586-1.107,1.068-2.271,1.59-3.418
			c0.542-1.136,0.96-2.334,1.441-3.502c0.484-1.167,0.87-2.379,1.32-3.565c0.455-1.185,0.81-2.408,1.209-3.616
			c0.408-1.206,0.755-2.432,1.106-3.658c0.363-1.223,0.754-2.44,1.066-3.68c0.324-1.236,0.665-2.47,1.016-3.704v-0.002l1.551,0.353
			c-0.533,7.372-1.071,14.782-0.304,21.73c0.205,1.723,0.522,3.402,0.991,4.952c0.482,1.541,1.123,2.952,1.99,3.992
			c0.854,1.062,1.912,1.694,3.193,2.021c1.29,0.314,2.812,0.252,4.389-0.036c3.177-0.584,6.423-2.108,9.55-3.786
			c0.781-0.437,1.568-0.863,2.338-1.333l1.159-0.698c0.388-0.235,0.702-0.449,1.087-0.707c1.469-0.999,2.925-2.083,4.336-3.217
			c5.656-4.537,10.799-9.783,15.196-15.593c2.214-2.897,4.182-5.979,5.896-9.195c0.892-1.592,1.631-3.258,2.411-4.906
			c0.684-1.687,1.394-3.37,1.927-5.113c2.372-6.894,3.328-14.246,2.981-21.503c-0.254-3.627-0.742-7.236-1.629-10.757l-0.641-2.641
			l-0.812-2.597c-0.285-0.861-0.513-1.735-0.842-2.581l-0.988-2.534c-0.632-1.697-1.353-3.366-2.139-4.833
			c-0.407-0.728-0.825-1.453-1.282-2.038c-0.444-0.589-0.94-1.073-1.284-1.268c-0.167-0.088-0.268-0.129-0.286-0.107
			c-0.026-0.005,0.007,0.01-0.064,0.037c-0.125,0.041-0.577,0.341-1.003,0.859c-0.435,0.499-0.871,1.152-1.273,1.853
			c-0.416,0.693-0.812,1.44-1.18,2.22c-1.479,3.123-2.644,6.578-3.75,10.037c-1.083,3.479-2.045,7.025-2.936,10.597
			c-1.779,7.148-3.297,14.395-4.698,21.669c-2.852,14.545-5.169,29.222-7.443,43.907c-2.253,14.691-4.296,29.423-6.199,44.175
			c-0.995,7.371-1.965,14.747-2.894,22.128l-2.74,22.15l-0.001,0.009c-0.056,0.456-0.472,0.78-0.928,0.724
			c-0.441-0.055-0.759-0.447-0.728-0.886l0.799-11.147l0.931-11.133c0.641-7.421,1.309-14.84,2.027-22.255
			c1.523-14.82,3.187-29.629,5.065-44.421c0.926-7.398,1.966-14.783,3.083-22.16c1.117-7.378,2.304-14.749,3.637-22.106
			c1.355-7.353,2.83-14.693,4.587-22.005c0.882-3.656,1.838-7.304,2.938-10.941c1.108-3.641,2.348-7.255,4.1-10.843
			c0.893-1.797,1.866-3.59,3.484-5.338c0.818-0.85,1.845-1.792,3.506-2.317c0.811-0.252,1.802-0.33,2.687-0.131
			c0.904,0.172,1.652,0.561,2.259,0.98c1.194,0.863,1.918,1.825,2.545,2.75c0.623,0.932,1.076,1.859,1.518,2.784
			c0.862,1.872,1.455,3.693,1.99,5.528l0.829,2.744c0.273,0.915,0.456,1.859,0.687,2.786l0.651,2.79l0.474,2.829
			c0.666,3.763,0.857,7.588,0.994,11.388c-0.023,7.609-1.004,15.239-3.395,22.463c-2.282,7.256-5.819,14.064-10.054,20.366
			c-4.292,6.275-9.375,12.001-15.11,17.044c-1.435,1.265-2.912,2.476-4.468,3.643c-0.375,0.279-0.818,0.606-1.215,0.871
			l-1.197,0.799c-0.795,0.536-1.623,1.037-2.443,1.546c-3.338,1.96-6.88,3.743-11.02,4.647c-2.062,0.439-4.34,0.591-6.686,0.039
			c-2.335-0.541-4.614-1.957-6.085-3.814c-1.514-1.836-2.407-3.901-2.978-5.918c-0.58-2.024-0.841-4.039-0.97-6.02
			c-0.237-3.965,0.161-7.818,0.813-11.58c0.694-3.761,1.656-7.425,3.071-10.982l0.09-0.227c0.16-0.403,0.617-0.6,1.02-0.44
			c0.403,0.16,0.6,0.616,0.44,1.019l-0.001,0.002c-0.207,1.275-0.424,2.55-0.659,3.823c-0.211,1.277-0.503,2.539-0.766,3.808
			c-0.271,1.267-0.57,2.529-0.915,3.781c-0.34,1.253-0.636,2.519-1.036,3.759c-0.395,1.241-0.717,2.505-1.191,3.724
			c-0.459,1.223-0.853,2.469-1.38,3.672c-0.495,1.214-1,2.424-1.593,3.603c-0.29,0.591-0.561,1.191-0.868,1.776l-0.955,1.74
			c-0.304,0.588-0.67,1.144-1.029,1.705c-0.368,0.555-0.694,1.134-1.098,1.669l-1.187,1.621c-0.419,0.525-0.863,1.036-1.298,1.55
			c-0.908,1.001-1.866,1.968-2.928,2.838c-1.039,0.891-2.196,1.663-3.411,2.333c-1.233,0.64-2.523,1.201-3.887,1.54
			c-1.35,0.375-2.759,0.554-4.158,0.543c-1.4-0.021-2.79-0.224-4.123-0.6c-1.344-0.382-2.596-0.889-3.826-1.686
			c-0.469-0.304-0.603-0.931-0.299-1.4c0.283-0.437,0.847-0.583,1.302-0.355L69.877,127.317z"/>
	</g>
	<g>
		<path fill="#FFFFFF" d="M160.975,190.053c0,0,0.028-0.299,0.082-0.877c0.04-0.589,0.1-1.462,0.178-2.601
			c0.136-2.294,0.335-5.659,0.589-9.942c0.259-4.288,0.575-9.495,0.936-15.467c0.427-5.969,0.865-12.708,1.488-20.05
			c0.601-7.343,1.287-15.298,2.153-23.7c0.83-8.406,1.828-17.261,3.006-26.409c1.147-9.152,2.536-18.589,4.173-28.157
			c1.652-9.566,3.512-19.267,6.048-28.895c1.278-4.815,2.757-9.597,4.772-14.298c1.042-2.345,2.168-4.68,3.869-6.925
			c0.876-1.108,1.867-2.239,3.377-3.136c0.736-0.448,1.66-0.803,2.651-0.932c0.986-0.131,2.044-0.025,2.923,0.293
			c1.782,0.633,2.981,1.716,3.959,2.756c0.969,1.062,1.734,2.164,2.413,3.274c0.676,1.127,1.284,2.196,1.826,3.39
			c0.507,1.013,1.018,2.293,1.471,3.501c1.717,4.784,2.315,9.835,2.11,14.675c-0.236,4.849-1.206,9.504-2.604,13.857
			c-1.385,4.364-3.184,8.442-5.14,12.276c-3.953,7.656-8.563,14.328-13.105,20.211c-4.556,5.879-9.07,10.974-13.207,15.347
			c-4.139,4.373-7.901,8.028-11.057,10.975c-3.16,2.943-5.737,5.152-7.533,6.616c-1.805,1.452-2.809,2.198-2.809,2.198
			c-0.49,0.364-1.181,0.262-1.545-0.228c-0.342-0.461-0.268-1.104,0.149-1.481c0,0,0.897-0.805,2.559-2.377
			c1.67-1.561,4.125-3.847,7.186-6.823c3.061-2.974,6.709-6.661,10.705-11.055c3.994-4.394,8.339-9.499,12.686-15.345
			c4.333-5.845,8.691-12.445,12.334-19.861c3.586-7.391,6.542-15.733,6.789-24.469c0.096-4.345-0.537-8.733-2.07-12.856
			c-0.4-0.999-0.762-1.931-1.333-3.041c-0.45-0.971-1.04-1.972-1.608-2.889c-0.58-0.923-1.212-1.786-1.877-2.491
			c-0.658-0.703-1.377-1.207-1.889-1.366c-0.26-0.093-0.443-0.079-0.65-0.055c-0.205,0.035-0.446,0.103-0.739,0.295
			c-0.584,0.343-1.259,1.048-1.863,1.855c-1.225,1.651-2.238,3.746-3.139,5.875c-1.791,4.309-3.121,8.959-4.371,13.619
			c-2.444,9.36-4.267,18.958-5.878,28.429c-1.599,9.479-2.927,18.863-4.2,27.949c-1.235,9.092-2.337,17.9-3.376,26.255
			c-0.991,8.364-1.929,16.273-2.794,23.572c-0.84,7.308-1.61,14.006-2.293,19.943c-0.706,5.939-1.321,11.117-1.827,15.381
			c-0.501,4.267-0.911,7.619-1.24,9.906c-0.169,1.147-0.298,2.027-0.385,2.62c-0.103,0.599-0.156,0.908-0.156,0.908
			c-0.082,0.479-0.538,0.8-1.016,0.718c-0.455-0.078-0.768-0.493-0.727-0.946L160.975,190.053z"/>
	</g>
	<g>
		<path fill="#FFFFFF" d="M223.183,88.274c-1.559-1.532-3.407-2.918-5.347-3.927c-1.943-1.012-4.044-1.665-6.071-1.645
			c-2.029,0.001-3.914,0.745-5.49,1.996c-1.57,1.268-2.835,2.996-3.87,4.876c-2.04,3.807-3.254,8.148-4.283,12.509
			c-0.503,2.185-1.007,4.429-1.334,6.532c-0.321,2.057-0.467,4.179-0.158,5.761c0.16,0.775,0.411,1.349,0.73,1.66
			c0.295,0.338,0.807,0.583,1.594,0.661c1.59,0.137,3.691-0.453,5.66-1.255c1.994-0.817,3.982-1.885,5.817-3.185
			c1.832-1.304,3.538-2.813,5.056-4.484c1.534-1.656,2.941-3.434,4.105-5.34c1.176-1.892,2.098-3.938,2.579-6.002
			c0.241-1.048,0.336-2.029,0.266-3.088c-0.032-0.566-0.07-1.139-0.122-1.68l-0.044-0.389c-0.012-0.103-0.044-0.272-0.036-0.218
			c0.384,0.219-0.831-0.312,1.11,0.973c2.815-1.079,1.091-0.92,1.621-1.005c0.013-0.051,0.003-0.002,0.001,0.043l-0.018,0.351
			c-0.043,2.17,0.141,4.501,0.351,6.744c0.225,2.258,0.552,4.505,1.057,6.666c0.522,2.124,1.16,4.316,2.234,5.811
			c0.544,0.745,1.105,1.116,1.615,1.167c0.531,0.081,1.353-0.212,2.148-0.765c0.801-0.543,1.579-1.28,2.309-2.077
			c0.362-0.392,0.735-0.833,1.057-1.236l1.074-1.369c2.659-3.597,4.983-7.606,6.937-11.724c1.977-4.124,3.632-8.403,4.983-12.764
			c0.684-2.178,1.283-4.379,1.812-6.593l0.786-3.393l0.234-0.911l0.149-0.5c0.068-0.194,0.103-0.344,0.286-0.719
			c0.076-0.126,0.084-0.202,0.364-0.537c-0.643-0.699,3.586-1.085,3.626,0.348c0.322,0.633,0.252,0.686,0.306,0.858
			c0.02,0.118,0.032,0.228,0.037,0.294c0.024,0.297,0.022,0.472,0.022,0.659c-0.002,0.358-0.016,0.671-0.033,0.983
			c-0.31,4.82-0.916,9.369-1.514,14.01c-0.639,4.612-1.235,9.226-2.103,13.787l-0.648,3.405c-0.106,0.557-0.222,1.132-0.284,1.591
			l-0.063,0.57c-0.004,0.012-0.007-0.004-0.033-0.077c-0.032-0.099-0.025-0.096-0.135-0.31c-0.09-0.108-0.252-0.509-0.923-0.762
			c-0.668-0.215-1.213-0.011-1.39,0.109c-0.182,0.105-0.272,0.194-0.303,0.226c-0.084,0.092-0.073,0.096-0.068,0.095
			c0.061-0.049,0.213-0.277,0.336-0.485c0.13-0.217,0.262-0.455,0.392-0.698c0.26-0.487,0.516-0.996,0.769-1.51
			c0.508-1.028,1.002-2.078,1.471-3.139c1.896-4.244,3.652-8.568,5.512-12.857c0.95-2.137,1.857-4.298,2.888-6.417
			c1.002-2.137,2.09-4.239,3.427-6.292c0.678-1.026,1.422-2.028,2.418-2.989c0.512-0.47,1.098-0.935,1.892-1.275
			c0.771-0.349,1.868-0.505,2.854-0.202l0.182,0.055l0.238,0.098c0.004-0.011,0.291,0.138,0.477,0.271
			c0.319,0.23,0.524,0.442,0.708,0.667c0.354,0.443,0.556,0.852,0.722,1.233c0.319,0.76,0.479,1.434,0.616,2.094
			c0.258,1.313,0.37,2.551,0.445,3.779c0.253,4.886-0.339,9.561-0.917,14.14c-0.159,1.136-0.316,2.274-0.423,3.346
			c-0.049,0.55-0.097,0.99-0.111,1.522c-0.017,0.521-0.017,1.054,0,1.586c0.065,2.111,0.321,4.312,1.034,5.996
			c0.354,0.841,0.82,1.431,1.267,1.659c0.43,0.26,1.193,0.228,2.062-0.143c0.86-0.363,1.752-0.954,2.57-1.655
			c0.827-0.695,1.627-1.471,2.384-2.299c3.004-3.345,5.543-7.199,7.618-11.257c1.053-2.024,1.962-4.122,2.746-6.259
			c0.799-2.132,1.443-4.315,1.943-6.522c0.984-4.405,1.392-8.962,0.634-13.321c-0.094-0.504-0.207-1.038-0.348-1.496
			c-0.131-0.454-0.326-0.9-0.457-1.044c-0.05-0.075-0.101-0.001,0.208,0.194c0.149,0.088,0.398,0.15,0.592,0.143
			c0.197-0.004,0.319-0.048,0.376-0.066c0.166-0.081-0.164,0.229-0.341,0.589c-0.424,0.749-0.832,1.736-1.159,2.735
			c-0.34,1.004-0.643,2.049-0.896,3.112c-1.052,4.246-1.691,8.703-1.569,13.074c0.137,4.338,0.902,8.714,3.02,12.115
			c0.264,0.421,0.549,0.825,0.855,1.207l0.493,0.555c0.134,0.101,0.215,0.222,0.371,0.33c0.597,0.476,1.102,0.678,1.717,0.684
			c0.622-0.013,1.417-0.256,2.219-0.75c0.804-0.48,1.606-1.131,2.37-1.86c3.063-2.984,5.592-6.879,7.912-10.79
			c2.315-3.949,4.392-8.071,6.43-12.218c2.042-4.147,3.985-8.363,5.912-12.584l0.002-0.01c0.054-0.267,0.314-0.439,0.581-0.385
			c0.248,0.05,0.415,0.279,0.393,0.526l-0.013,0.142c-0.78,8.437-2.724,16.599-4.523,24.795l-5.418,24.584l-10.87,49.159
			l-5.558,24.55l-2.829,12.263l-2.873,12.253c-1.913,8.169-3.859,16.331-5.838,24.484c-0.993,4.076-1.943,8.162-2.97,12.23
			c-0.551,2.025-1.224,4.021-2.103,5.969c-0.881,1.947-1.905,3.86-3.352,5.674c-0.191,0.239-0.538,0.278-0.777,0.087
			c-0.104-0.083-0.17-0.197-0.196-0.317c-0.482-2.269-0.541-4.439-0.456-6.574c0.087-2.135,0.378-4.221,0.793-6.279
			c0.903-4.097,1.883-8.176,2.821-12.265c1.883-8.176,3.798-16.345,5.745-24.506l2.919-12.242l2.962-12.232l6.025-24.44
			l12.297-48.822l6.166-24.407c2.061-8.134,3.979-16.302,7.06-24.195l0.961,0.283l-0.005,0.01
			c-2.564,9.002-5.96,17.735-10.306,26.118c-1.096,2.093-2.259,4.162-3.553,6.181s-2.708,3.996-4.443,5.838
			c-0.874,0.916-1.835,1.801-2.991,2.575c-1.139,0.765-2.568,1.438-4.271,1.574c-0.852,0.061-1.739-0.064-2.567-0.321
			c-0.812-0.282-1.557-0.694-2.174-1.175c-0.321-0.224-0.633-0.539-0.938-0.817c-0.138-0.134-0.209-0.22-0.316-0.333l-0.365-0.399
			c-0.435-0.513-0.837-1.05-1.206-1.603c-2.943-4.484-3.884-9.626-4.05-14.514c-0.08-2.463,0.044-4.909,0.33-7.332
			c0.278-2.425,0.746-4.822,1.43-7.188c0.752-2.369,1.54-4.66,3.212-7.006c0.484-0.583,0.894-1.225,2.099-1.852
			c0.317-0.146,0.722-0.28,1.209-0.301c0.484-0.027,1.026,0.097,1.435,0.314c0.835,0.455,1.158,1.007,1.404,1.427
			c0.452,0.865,0.583,1.551,0.713,2.226c0.119,0.676,0.174,1.293,0.217,1.943c0.258,4.899-0.314,9.728-1.516,14.346
			c-1.219,4.618-3.001,9.034-5.147,13.252c-2.183,4.196-4.642,8.266-7.75,11.937c-1.562,1.835-3.202,3.642-5.604,5.029
			c-0.616,0.329-1.31,0.613-2.106,0.759c-0.787,0.153-1.708,0.141-2.57-0.138c-0.865-0.275-1.612-0.784-2.19-1.343
			c-0.579-0.564-1.024-1.176-1.388-1.79c-1.408-2.475-1.955-4.955-2.327-7.45c-0.084-0.626-0.147-1.254-0.191-1.895
			c-0.043-0.63-0.063-1.352-0.034-1.962c0.047-1.247,0.136-2.422,0.226-3.596c0.418-4.66,1.062-9.218,1.525-13.634
			c0.109-1.095,0.185-2.187,0.162-3.183c-0.01-0.491-0.054-0.969-0.123-1.306c-0.031-0.165-0.074-0.289-0.064-0.316
			c0.012-0.01,0.015-0.009,0.105,0.042c0.065,0.052,0.238,0.109,0.107,0.042c0.029,0.009-0.197-0.099,0.041,0.005l-0.024-0.017
			c-0.116-0.087-0.248-0.162-0.56-0.099c-0.299,0.066-0.688,0.265-1.071,0.532c-0.784,0.541-1.517,1.359-2.201,2.211
			c-2.698,3.526-4.768,7.741-6.596,11.959c-1.822,4.249-3.397,8.607-4.864,13.03l-1.097,3.343c-0.188,0.562-0.38,1.125-0.594,1.699
			c-0.107,0.288-0.219,0.577-0.348,0.88c-0.138,0.311-0.255,0.601-0.526,1.028c-0.08,0.116-0.159,0.236-0.347,0.429
			c-0.082,0.084-0.229,0.218-0.474,0.36c-0.241,0.153-0.861,0.381-1.598,0.138c-0.74-0.277-0.951-0.741-1.073-0.913
			c-0.149-0.276-0.156-0.346-0.214-0.513c-0.06-0.215-0.086-0.374-0.105-0.506c-0.063-0.5-0.064-0.815-0.069-1.172
			c0-0.702,0.043-1.28,0.073-1.877l0.268-3.508c0.397-4.65,1.115-9.239,1.736-13.838l0.973-6.882
			c0.315-2.279,0.673-4.597,0.891-6.791l0.058-0.758l0.009-0.212c0.001-0.006,0.003,0.032,0.013,0.078
			c0.04,0.101-0.041,0.08,0.245,0.65c0.011,1.348,4.139,0.987,3.458,0.351c0.232-0.28,0.205-0.292,0.247-0.354
			c0.052-0.115-0.009,0.009-0.036,0.09l-0.114,0.331l-0.231,0.769l-0.932,3.365c-0.666,2.278-1.404,4.532-2.225,6.752
			c-1.637,4.443-3.533,8.777-5.694,12.979c-1.074,2.105-2.227,4.169-3.449,6.197c-1.218,2.042-2.5,4.002-3.933,5.973l-1.046,1.398
			c-0.392,0.513-0.761,0.968-1.176,1.441c-0.82,0.93-1.708,1.837-2.81,2.634c-0.55,0.397-1.166,0.763-1.878,1.045
			c-0.712,0.275-1.549,0.464-2.441,0.39c-0.889-0.063-1.764-0.408-2.436-0.884c-0.685-0.473-1.195-1.042-1.625-1.614
			c-0.843-1.154-1.366-2.347-1.804-3.531c-0.437-1.185-0.737-2.378-0.988-3.567c-0.496-2.379-0.78-4.75-0.961-7.122
			c-0.169-2.387-0.228-4.71-0.087-7.185l0.051-0.517c0.013-0.099,0.024-0.194,0.068-0.387c0.551-0.149-1.168-0.083,1.714-1.188
			c2.004,1.32,0.794,0.878,1.203,1.161c0.075,0.336,0.074,0.458,0.095,0.643l0.034,0.479c0.034,0.618,0.046,1.206,0.056,1.801
			c0.046,1.265-0.126,2.616-0.453,3.822c-0.643,2.456-1.799,4.635-3.067,6.686c-1.291,2.043-2.775,3.93-4.363,5.715
			c-1.607,1.77-3.309,3.444-5.093,5.059c-1.786,1.613-3.66,3.175-5.794,4.498c-2.145,1.29-4.517,2.458-7.608,2.575
			c-1.519,0.037-3.391-0.352-4.867-1.551c-1.5-1.171-2.289-2.815-2.733-4.26c-0.81-2.955-0.583-5.575-0.215-8.092
			c0.423-2.486,1.042-4.76,1.726-7.067c1.425-4.583,3.287-9.133,6.16-13.245c1.427-2.045,3.149-4.003,5.369-5.451
			c2.178-1.477,4.94-2.301,7.575-2.071c2.639,0.197,5.028,1.21,7.101,2.505c2.079,1.326,3.907,2.865,5.536,4.714
			c0.325,0.369,0.29,0.931-0.079,1.256c-0.352,0.31-0.88,0.292-1.21-0.031L223.183,88.274z"/>
	</g>
	<g>
		<path fill="#FFFFFF" d="M99.315,65.159c0,0,0.357-0.256,1.013-0.627c0.663-0.36,1.629-0.855,2.896-1.255
			c0.633-0.207,1.342-0.388,2.131-0.492c0.791-0.086,1.659-0.189,2.615-0.013c0.944,0.113,1.987,0.52,2.926,1.184
			c0.43,0.381,0.912,0.762,1.201,1.263l0.243,0.363l0.119,0.184l0.059,0.093l0.029,0.046l0.015,0.023l0.007,0.012
			c0.024,0.053-0.042-0.102,0.055,0.121l0.132,0.281l0.066,0.14c0.028,0.07,0.07,0.202,0.1,0.303
			c0.132,0.42,0.208,0.899,0.132,1.482c-0.077,0.336-0.132,0.646-0.345,0.968c-0.196,0.33-0.438,0.603-0.693,0.782
			c-0.124,0.095-0.275,0.204-0.39,0.263c-0.112,0.056-0.227,0.108-0.343,0.156c-0.252,0.11-0.434,0.149-0.623,0.191
			c-0.202,0.049-0.378,0.075-0.528,0.083c-0.154,0.011-0.336,0.033-0.467,0.028c-1.138-0.004-2.013-0.17-2.851-0.368
			c-1.651-0.399-3.077-0.88-4.196-1.55c-1.125-0.642-1.966-1.367-2.509-1.961c-0.547-0.585-0.808-1.021-0.808-1.021l-0.096-0.16
			C99.103,65.502,99.152,65.276,99.315,65.159z M99.613,65.164c0,0,0.49-0.09,1.272-0.104c0.786-0.023,1.853,0.05,3.048,0.285
			c0.599,0.114,1.229,0.268,1.875,0.462c0.647,0.186,1.312,0.42,1.99,0.587c0.665,0.167,1.372,0.324,1.864,0.345
			c0.212,0.035,0.385-0.093-0.004,0.158c-0.071,0.074-0.192,0.18-0.278,0.334c-0.064,0.167-0.129,0.248-0.133,0.394
			c-0.026,0.175,0.012,0.236,0.026,0.259c0,0,0.029,0.03,0.024,0.003l-0.05-0.147l-0.1-0.294c0.095,0.217,0.025,0.057,0.045,0.104
			l-0.003-0.005l-0.006-0.01l-0.011-0.019l-0.022-0.039l-0.043-0.079l-0.081-0.163c-0.076-0.253-0.27-0.377-0.39-0.592
			c-0.341-0.325-0.769-0.654-1.355-0.816c-0.55-0.203-1.199-0.315-1.823-0.376c-0.631-0.047-1.256-0.048-1.844-0.041
			c-0.588,0.019-1.131,0.077-1.622,0.116c-0.49,0.045-0.918,0.105-1.272,0.154c-0.713,0.095-1.117,0.165-1.117,0.165L99.613,65.164z
			"/>
	</g>
	<g>
		<path fill="#FFFFFF" d="M201.644,87.888c0,0-0.148,0.499-0.445,1.34c-0.307,0.84-0.783,2.024-1.446,3.409
			c-0.34,0.687-0.719,1.427-1.148,2.199c-0.421,0.776-0.921,1.562-1.441,2.379c-0.522,0.816-1.11,1.63-1.744,2.437
			c-0.641,0.8-1.291,1.625-2.044,2.369c-0.73,0.763-1.524,1.478-2.336,2.158c-0.833,0.661-1.694,1.275-2.615,1.76
			c-0.229,0.122-0.456,0.243-0.68,0.364c-0.238,0.1-0.474,0.198-0.707,0.296c-0.458,0.208-0.942,0.346-1.404,0.494
			c-0.932,0.282-1.865,0.387-2.717,0.44c-0.859,0.005-1.642-0.052-2.316-0.205c-0.679-0.111-1.233-0.355-1.688-0.509
			c-0.445-0.19-0.773-0.382-0.998-0.502c-0.221-0.125-0.339-0.192-0.339-0.192c-0.361-0.204-0.488-0.661-0.284-1.021
			c0.148-0.263,0.431-0.402,0.714-0.379l0.106,0.009c0,0,0.12,0.01,0.345,0.028c0.218,0.022,0.537,0.055,0.943,0.096
			c0.41-0.026,0.88,0.073,1.425-0.006c0.539-0.011,1.136-0.102,1.77-0.233c0.637-0.13,1.304-0.348,1.999-0.624
			c0.697-0.274,1.406-0.636,2.127-1.071c0.726-0.415,1.443-0.935,2.179-1.464c0.718-0.561,1.436-1.158,2.114-1.819
			c0.681-0.652,1.36-1.326,1.997-2.024c0.638-0.697,1.24-1.414,1.83-2.108c1.153-1.409,2.197-2.775,3.059-3.976
			c0.877-1.192,1.575-2.218,2.068-2.935c0.489-0.718,0.768-1.129,0.768-1.129l0.006-0.01c0.157-0.231,0.471-0.29,0.702-0.134
			C201.63,87.453,201.704,87.683,201.644,87.888z"/>
	</g>
	<path fill="#F04D24" stroke="#F04D24" stroke-linecap="round" stroke-linejoin="round" stroke-miterlimit="10" d="M198.624,12.708"
		/>
	<g>
		<path fill="#FFFFFF" d="M213.075,132.03c1.299,0.371,1.955,0.749,2.439,1.128c0.461,0.38,0.666,0.763,0.663,1.148l0.057,2.309
			l0.097,4.618c0.068,3.079,0.041,6.159,0.057,9.238c0.026,3.079-0.069,6.16-0.097,9.24l-0.242,9.241l-0.599,18.484l-0.063,2.315
			c-0.02,0.716-0.023,1.483-0.017,2.229c0.013,1.503,0.092,3.007,0.199,4.503c0.232,2.981,0.597,5.981,1.434,8.716
			c0.416,1.346,0.971,2.661,1.689,3.532c0.782,0.851,1.284,1.009,2.309,0.654c1.013-0.394,2.108-1.336,3.078-2.356
			c0.977-1.045,1.885-2.218,2.745-3.434c1.713-2.448,3.246-5.074,4.701-7.746l4.375-8.119c1.459-2.712,2.91-5.434,4.404-8.135
			c1.471-2.711,3.007-5.392,4.533-8.075c1.567-2.662,3.109-5.336,4.769-7.942c1.6-2.64,3.35-5.19,5.034-7.775l0.007-0.011
			c0.151-0.231,0.46-0.297,0.692-0.146c0.227,0.148,0.294,0.45,0.154,0.68l-0.001,0.001c-1.054,4.884-2.502,9.414-3.849,13.919
			c-0.67,2.25-1.363,4.471-1.979,6.696c-0.618,2.223-1.114,4.465-1.424,6.697c-0.626,4.442-0.486,8.963,1.173,12.585
			c0.099,0.198,0.229,0.502,0.298,0.616c0.14,0.247,0.304,0.571,0.423,0.755l0.348,0.54l0.423,0.574
			c0.585,0.741,1.259,1.378,1.985,1.86c1.461,0.966,3.07,1.31,4.613,0.848c1.549-0.442,3.074-1.66,4.316-3.297
			c1.241-1.643,2.225-3.642,2.995-5.753c0.758-2.126,1.344-4.369,1.744-6.602c0.396-2.263,0.611-4.601,0.697-6.935
			c0.12-4.661-0.184-9.4-1.566-13.807c-0.687-2.196-1.652-4.301-3.038-6.113c-0.705-0.891-1.494-1.717-2.385-2.441
			c-0.902-0.709-1.911-1.282-2.98-1.758l0.369-0.928l0,0c4.205,0.983,8.355,1.961,12.498,2.589c2.066,0.333,4.134,0.557,6.18,0.671
			c2.046,0.124,4.079,0.095,6.051-0.161c1.008-0.15,1.879-0.325,2.973-0.602l3.155-0.761c2.112-0.503,4.241-1,6.42-1.416
			c2.177-0.414,4.414-0.74,6.666-0.869c2.252-0.131,4.5-0.088,6.712,0.057c1.109,0.063,2.204,0.175,3.302,0.277l1.636,0.183
			l0.752,0.077l0.807,0.073c0.904,0.028,1.911,0.044,2.921-0.058c1.006-0.082,2.028-0.21,3.054-0.384
			c4.112-0.686,8.294-1.945,12.65-2.683c2.174-0.382,4.393-0.654,6.632-0.721c2.238-0.064,4.492,0.108,6.694,0.52
			c2.203,0.413,4.349,1.083,6.381,1.975c2.041,0.878,3.937,2.032,5.729,3.29c0.226,0.159,0.281,0.471,0.122,0.697
			c-0.149,0.212-0.434,0.274-0.655,0.149l-0.008-0.004c-1.857-1.056-3.8-1.923-5.779-2.63c-1.985-0.696-4.034-1.167-6.104-1.394
			c-4.148-0.448-8.323,0.036-12.433,0.995c-4.121,0.953-8.206,2.299-12.586,3.238c-2.212,0.469-4.426,0.755-6.91,0.684l-0.808-0.054
			l-0.464-0.033l-0.397-0.037l-1.588-0.149c-1.056-0.08-2.112-0.169-3.161-0.209c-4.213-0.223-8.29,0.074-12.413,0.91
			c-2.063,0.406-4.141,0.904-6.229,1.414l-3.141,0.777c-0.999,0.262-2.244,0.532-3.374,0.697c-2.312,0.313-4.621,0.367-6.884,0.182
			c-2.267-0.169-4.479-0.606-6.645-1.141c-2.158-0.572-4.268-1.273-6.302-2.146c-2.037-0.87-4.011-1.846-5.87-3.093l0,0
			c-0.257-0.098-0.386-0.385-0.289-0.642c0.093-0.245,0.358-0.374,0.605-0.301l0.053,0.016c1.204,0.355,2.387,0.835,3.489,1.491
			c1.085,0.672,2.109,1.468,3.003,2.396c1.773,1.869,3.12,4.097,4.109,6.436c0.976,2.346,1.661,4.792,2.125,7.261
			c0.484,2.47,0.716,4.97,0.814,7.473c0.082,2.505,0.03,5.01-0.231,7.543c-0.26,2.561-0.821,5.042-1.551,7.519
			c-0.767,2.47-1.79,4.937-3.351,7.246c-1.543,2.28-3.797,4.491-6.907,5.5c-1.531,0.501-3.228,0.651-4.837,0.391
			c-1.612-0.247-3.122-0.852-4.435-1.668c-1.316-0.817-2.446-1.839-3.397-2.966c-0.236-0.283-0.455-0.576-0.682-0.865
			c-0.224-0.303-0.443-0.645-0.66-0.969c-0.21-0.323-0.323-0.539-0.489-0.814c-0.24-0.406-0.349-0.66-0.528-0.999
			c-1.248-2.581-1.842-5.34-2.08-8.016c-0.23-2.687-0.094-5.321,0.232-7.885c0.331-2.565,0.861-5.065,1.514-7.511
			c0.659-2.444,1.489-4.823,2.52-7.103c1.024-2.283,2.217-4.48,3.589-6.565c1.375-2.084,2.907-4.068,4.77-5.835l0.001-0.002
			l0.852,0.523c-1.559,2.65-3.181,5.258-4.653,7.957c-1.521,2.668-2.973,5.377-4.425,8.083c-1.418,2.726-2.843,5.447-4.207,8.203
			c-1.385,2.744-2.728,5.51-4.084,8.275l-4.081,8.308c-1.422,2.771-2.944,5.504-4.706,8.144c-0.891,1.316-1.841,2.608-2.942,3.837
			c-1.13,1.204-2.342,2.429-4.189,3.229c-0.917,0.383-2.112,0.586-3.277,0.289c-1.155-0.312-2.074-1.023-2.718-1.751
			c-1.289-1.485-1.937-3.078-2.499-4.636c-1.045-3.137-1.602-6.264-2.027-9.399c-0.207-1.567-0.354-3.136-0.487-4.708
			c-0.066-0.792-0.123-1.564-0.164-2.388l-0.113-2.303l-1.003-18.466l-0.443-9.234c-0.096-3.078-0.258-6.156-0.299-9.235
			c-0.051-3.079-0.145-6.157-0.144-9.237l-0.004-4.619l0.007-2.31c-0.012-0.385,0.185-0.772,0.638-1.162
			c0.475-0.39,1.123-0.782,2.414-1.181C212.413,131.936,212.758,131.939,213.075,132.03z"/>
	</g>
</g>
</svg>
